<svg width="65" height="65" viewBox="0 0 65 65" fill="none" xmlns="http://www.w3.org/2000/svg">
<g id="001-room service" clip-path="url(#clip0_4722_1169)">
<g id="Group">
<path id="Vector" d="M64.0494 21.8318H61.4355V19.9522C61.4355 17.1204 60.6343 14.3667 59.1187 11.9886C58.8361 11.5454 58.2474 11.4148 57.8041 11.6975C57.3606 11.9801 57.2303 12.5686 57.513 13.0121C58.8333 15.0837 59.5312 17.4836 59.5312 19.9521V21.8316H33.6657V19.9521C33.6657 12.821 39.4674 7.01951 46.5984 7.01951C49.7785 7.01951 52.8356 8.1852 55.2067 10.3018C55.5989 10.6521 56.2008 10.6179 56.5511 10.2255C56.9013 9.83317 56.8672 9.23129 56.4748 8.88115C53.9921 6.6648 50.8535 5.35782 47.5506 5.14632V3.52246C47.5506 2.99649 47.1244 2.57031 46.5984 2.57031C46.0725 2.57031 45.6463 2.99649 45.6463 3.52246V5.14683C37.9072 5.6394 31.7614 12.0912 31.7614 19.9524V21.8319H29.1475C28.6216 21.8319 28.1953 22.2581 28.1953 22.784V23.3085C28.1953 26.5055 30.7963 29.1066 33.9934 29.1066H59.2034C62.4005 29.1066 65.0016 26.5055 65.0016 23.3085V22.784C65.0016 22.2581 64.5754 21.8318 64.0494 21.8318ZM59.2035 27.2021H33.9934C31.9908 27.2021 30.3365 25.6826 30.1228 23.7361H63.0739C62.8602 25.6826 61.206 27.2021 59.2035 27.2021Z" fill="#AA8453"/>
<path id="Vector_2" d="M57.5477 42.893L51.0639 46.8371C44.7219 50.6951 37.058 51.5254 30.037 49.1151C28.9739 48.7501 28.2449 47.8679 28.087 46.7549C27.9291 45.6419 28.3838 44.5917 29.3036 43.9454L36.0468 39.2067C37.7551 38.0064 38.1864 35.7051 37.0285 33.9678C36.15 32.649 34.5824 32.0168 33.0346 32.3561L15.5813 36.185V35.8338C15.5813 34.3787 14.3976 33.195 12.9426 33.195H9.01329C8.48745 33.195 8.06114 33.6212 8.06114 34.1472C8.06114 34.6731 8.48745 35.0993 9.01329 35.0993H12.9426C13.3476 35.0993 13.677 35.4289 13.677 35.8338V59.788C13.677 60.193 13.3476 60.5224 12.9426 60.5224H2.05766C1.97311 60.5224 1.90442 60.4537 1.90442 60.3692V35.2528C1.90442 35.1682 1.97323 35.0994 2.05766 35.0994H5.2631C5.78894 35.0994 6.21524 34.6732 6.21524 34.1473C6.21524 33.6213 5.78894 33.1951 5.2631 33.1951H2.05753C0.923076 33.1951 0 34.1182 0 35.2528V60.3693C0 61.5039 0.923076 62.4268 2.05753 62.4268H12.9425C14.3975 62.4268 15.5812 61.2431 15.5812 59.7881V59.1083L16.3373 59.3264C21.014 60.6757 25.8381 61.3453 30.6556 61.3453C37.6521 61.3453 44.6343 59.9326 51.1294 57.137C51.6124 56.929 51.8355 56.369 51.6275 55.886C51.4196 55.4027 50.8593 55.1797 50.3765 55.3878C39.8126 59.9346 27.9118 60.6838 16.8652 57.4966L15.5813 57.1263V38.1348L33.4428 34.2162C34.2183 34.046 35.0035 34.3631 35.4439 35.0238C36.024 35.8942 35.8079 37.0471 34.952 37.6486L28.2086 42.3873C26.714 43.4377 25.9449 45.2138 26.2016 47.0225C26.4582 48.8311 27.6909 50.3231 29.4187 50.9163C36.9769 53.5107 45.2269 52.6169 52.0534 48.464L58.5373 44.5199C60.5192 43.3143 63.1507 44.6683 63.0947 46.5544C63.0769 47.1521 62.8021 47.7127 62.3405 48.0928C59.7119 50.2566 56.8488 52.157 53.8309 53.741C53.3653 53.9854 53.186 54.561 53.4304 55.0265C53.6006 55.351 53.9316 55.5365 54.2742 55.5365C54.4233 55.5365 54.5746 55.5013 54.7159 55.4272C57.8491 53.7827 60.8216 51.8098 63.551 49.5631C64.437 48.8339 64.9645 47.7578 64.9982 46.6108C65.1035 43.0561 60.6629 40.9979 57.5477 42.893Z" fill="#AA8453"/>
<path id="Vector_3" d="M6.1875 53.1154C6.1875 53.6414 6.61381 54.0676 7.13965 54.0676C7.66549 54.0676 8.0918 53.6414 8.0918 53.1154V50.8193C8.0918 50.2934 7.66549 49.8672 7.13965 49.8672C6.61381 49.8672 6.1875 50.2934 6.1875 50.8193V53.1154Z" fill="#AA8453"/>
</g>
</g>
<defs>
<clipPath id="clip0_4722_1169">
<rect width="65" height="65" fill="white"/>
</clipPath>
</defs>
</svg>
