<svg width="65" height="65" viewBox="0 0 65 65" fill="none" xmlns="http://www.w3.org/2000/svg">
<g id="002-room service" clip-path="url(#clip0_4722_924)">
<g id="Group">
<path id="Vector" d="M57.2168 40.9175V26.6592C57.2168 26.1333 56.7906 25.707 56.2646 25.707C55.7387 25.707 55.3125 26.1333 55.3125 26.6592V40.9175C55.3125 41.4435 55.7387 41.8697 56.2646 41.8697C56.7906 41.8697 57.2168 41.4435 57.2168 40.9175Z" fill="#AA8453"/>
<path id="Vector_2" d="M45.2246 40.9175V26.6592C45.2246 26.1333 44.7984 25.707 44.2725 25.707C43.7465 25.707 43.3203 26.1333 43.3203 26.6592V40.9175C43.3203 41.4435 43.7465 41.8697 44.2725 41.8697C44.7984 41.8697 45.2246 41.4435 45.2246 40.9175Z" fill="#AA8453"/>
<path id="Vector_3" d="M33.2402 40.9175V26.6592C33.2402 26.1333 32.8141 25.707 32.2881 25.707C31.7621 25.707 31.3359 26.1333 31.3359 26.6592V40.9175C31.3359 41.4435 31.7621 41.8697 32.2881 41.8697C32.8141 41.8697 33.2402 41.4435 33.2402 40.9175Z" fill="#AA8453"/>
<path id="Vector_4" d="M21.248 40.9175V26.6592C21.248 26.1333 20.8219 25.707 20.2959 25.707C19.7699 25.707 19.3438 26.1333 19.3438 26.6592V40.9175C19.3438 41.4435 19.7699 41.8697 20.2959 41.8697C20.8219 41.8697 21.248 41.4435 21.248 40.9175Z" fill="#AA8453"/>
<path id="Vector_5" d="M43.29 50.0742H33.2725C32.7465 50.0742 32.3203 50.5004 32.3203 51.0264C32.3203 51.5523 32.7465 51.9785 33.2725 51.9785H43.29C43.8159 51.9785 44.2421 51.5523 44.2421 51.0264C44.2421 50.5004 43.8159 50.0742 43.29 50.0742Z" fill="#AA8453"/>
<path id="Vector_6" d="M51.0137 36.7693V30.8076C51.0137 30.2818 50.5875 29.8555 50.0615 29.8555C49.5356 29.8555 49.1094 30.2818 49.1094 30.8076V36.7693C49.1094 37.2953 49.5356 37.7215 50.0615 37.7215C50.5875 37.7215 51.0137 37.2953 51.0137 36.7693Z" fill="#AA8453"/>
<path id="Vector_7" d="M39.2324 36.7693V30.8076C39.2324 30.2818 38.8062 29.8555 38.2803 29.8555C37.7543 29.8555 37.3281 30.2818 37.3281 30.8076V36.7693C37.3281 37.2953 37.7543 37.7215 38.2803 37.7215C38.8062 37.7215 39.2324 37.2953 39.2324 36.7693Z" fill="#AA8453"/>
<path id="Vector_8" d="M27.4512 36.7693V30.8076C27.4512 30.2818 27.025 29.8555 26.499 29.8555C25.9731 29.8555 25.5469 30.2818 25.5469 30.8076V36.7693C25.5469 37.2953 25.9731 37.7215 26.499 37.7215C27.025 37.7215 27.4512 37.2953 27.4512 36.7693Z" fill="#AA8453"/>
<path id="Vector_9" d="M63.4511 19.0811H51.8224C52.4047 18.2978 52.7498 17.3282 52.7498 16.2793V15.8731C52.7498 15.3472 52.3236 14.9209 51.7976 14.9209H49.9873V13.6796C49.9873 11.9757 49.6264 10.3288 48.9147 8.78465C48.6945 8.30718 48.1291 8.09859 47.6514 8.3186C47.1738 8.53874 46.9652 9.10432 47.1852 9.58191C47.781 10.8743 48.083 12.253 48.083 13.6797V14.9211H28.4756V13.6797C28.4756 8.27392 32.8736 3.87601 38.2794 3.87601C40.886 3.87601 43.3402 4.88833 45.1897 6.72661C45.5627 7.09744 46.1656 7.09554 46.5362 6.72255C46.9069 6.34956 46.905 5.74666 46.5321 5.37608C44.5503 3.40628 41.9863 2.23374 39.2316 2.0131V0.952148C39.2316 0.426309 38.8054 0 38.2794 0C37.7535 0 37.3273 0.426309 37.3273 0.952148V2.01056C31.315 2.49679 26.5713 7.54444 26.5713 13.6796V14.9209H24.761C24.235 14.9209 23.8088 15.3472 23.8088 15.8731V16.2793C23.8088 17.3281 24.154 18.2978 24.7362 19.0811H13.1075C12.2535 19.0811 11.5588 19.7759 11.5588 20.6299V22.0392H7.25691C6.72434 22.0392 6.25093 21.7006 6.07917 21.1965L5.73398 20.1848C5.32697 18.9918 4.20661 18.1902 2.94609 18.1902C2.06999 18.1902 1.24543 18.576 0.684166 19.2488C0.122906 19.9215 -0.10891 20.8017 0.0480037 21.6637L0.178131 22.3782C0.698004 25.2316 3.18019 27.3025 6.08056 27.3025H11.5587V34.8656C11.5587 35.3916 11.9849 35.8178 12.5109 35.8178C13.0368 35.8178 13.463 35.3916 13.463 34.8656V20.9854H63.0953V42.6111C63.0953 43.3607 62.7314 44.0154 62.0966 44.4071C61.4542 44.8034 60.6636 44.8355 59.9809 44.4931C59.271 44.1369 58.4942 43.9637 57.6058 43.9637C55.9889 43.9637 54.9922 44.5053 53.7831 45.4916C53.03 46.1058 52.4353 46.5909 51.1638 46.5909C49.8925 46.5909 49.2978 46.1058 48.5447 45.4916C47.7103 44.8109 46.6715 43.9637 44.7222 43.9637C42.7727 43.9637 41.7339 44.8109 40.8995 45.4916C40.1464 46.1058 39.5518 46.5909 38.2803 46.5909C37.0089 46.5909 36.4142 46.1058 35.6611 45.4916C34.8267 44.8109 33.788 43.9637 31.8383 43.9637C29.8888 43.9637 28.8501 44.8109 28.0156 45.4916C27.2626 46.1058 26.6679 46.5909 25.3965 46.5909C24.1248 46.5909 23.5299 46.1058 22.7768 45.4916C21.5644 44.5027 20.5693 43.9637 18.9537 43.9637C18.0649 43.9637 17.2876 44.137 16.5773 44.4935C15.8951 44.8363 15.1044 44.8039 14.4624 44.4078C13.8274 44.016 13.4631 43.3612 13.4631 42.6114V38.6726C13.4631 38.1466 13.037 37.7204 12.511 37.7204C11.985 37.7204 11.5588 38.1466 11.5588 38.6726V42.6114C11.5588 44.0158 12.2704 45.2931 13.4625 46.0285C14.671 46.7741 16.1548 46.8366 17.4317 46.1954C17.8768 45.972 18.3604 45.868 18.9537 45.868C19.0921 45.868 19.2212 45.8748 19.3446 45.8858V53.5046H15.859C14.9814 53.5046 14.2674 54.2186 14.2674 55.0963V58.7609C14.2674 59.6385 14.9814 60.3525 15.859 60.3525H19.3481C19.3467 60.3977 19.3446 60.4426 19.3446 60.4881C19.3446 62.976 21.3685 64.9999 23.8564 64.9999C26.3442 64.9999 28.3681 62.976 28.3681 60.4881C28.3681 60.4426 28.3659 60.3976 28.3646 60.3525H33.2705C33.7965 60.3525 34.2226 59.9263 34.2226 59.4004C34.2226 58.8744 33.7965 58.4482 33.2705 58.4482H27.8785C27.1324 56.983 25.6103 55.9764 23.8564 55.9764C22.1026 55.9764 20.5803 56.983 19.8342 58.4482H16.1717V55.4089H60.387V58.4482H56.7244C55.9783 56.983 54.4562 55.9764 52.7023 55.9764C50.9485 55.9764 49.4262 56.983 48.6801 58.4482H37.0776C36.5516 58.4482 36.1254 58.8744 36.1254 59.4004C36.1254 59.9263 36.5516 60.3525 37.0776 60.3525H48.194C48.1926 60.3977 48.1905 60.4426 48.1905 60.4881C48.1905 62.976 50.2144 64.9999 52.7023 64.9999C55.1901 64.9999 57.214 62.976 57.214 60.4881C57.214 60.4426 57.2118 60.3976 57.2106 60.3525H60.6996C61.5772 60.3525 62.2913 59.6385 62.2913 58.7609V55.0964C62.2913 54.2188 61.5772 53.5048 60.6996 53.5048H57.214V45.8859C57.3378 45.8749 57.4671 45.868 57.6059 45.868C58.1989 45.868 58.6823 45.9719 59.1269 46.1951C60.4043 46.8362 61.8883 46.7733 63.0967 46.0276C64.2884 45.2923 64.9998 44.015 64.9998 42.6111V20.6299C64.9998 19.7759 64.3051 19.0811 63.4511 19.0811ZM6.08069 25.3982C4.10086 25.3982 2.40654 23.9846 2.05183 22.0369L1.9217 21.3225C1.8661 21.0179 1.94811 20.7066 2.14654 20.4688C2.34484 20.231 2.63632 20.0945 2.94622 20.0945C3.39182 20.0945 3.78792 20.3779 3.93175 20.7997L4.27694 21.8112C4.71201 23.0866 5.90956 23.9435 7.25716 23.9435H11.5591V25.3982H6.08069ZM25.7665 16.8252H50.7921C50.5376 18.1094 49.4028 19.0804 48.0453 19.0811H28.5136C27.1559 19.0804 26.0211 18.1094 25.7665 16.8252ZM23.8564 57.8809C25.2942 57.8809 26.4638 59.0505 26.4638 60.4882C26.4638 61.926 25.2943 63.0957 23.8564 63.0957C22.4185 63.0957 21.2489 61.926 21.2489 60.4882C21.2489 59.0505 22.4187 57.8809 23.8564 57.8809ZM52.7023 63.0957C51.2646 63.0957 50.0948 61.926 50.0948 60.4882C50.0948 59.0505 51.2646 57.8809 52.7023 57.8809C54.1401 57.8809 55.3097 59.0505 55.3097 60.4882C55.3097 61.926 54.1401 63.0957 52.7023 63.0957ZM55.3097 53.5048H21.2489V46.7066C21.3554 46.7901 21.4626 46.8771 21.5733 46.9673C22.4079 47.648 23.4467 48.4952 25.3965 48.4952C27.346 48.4952 28.3847 47.648 29.2192 46.9673C29.9723 46.3531 30.5669 45.868 31.8383 45.868C33.1099 45.868 33.7045 46.3531 34.4576 46.9673C35.2921 47.648 36.3308 48.4952 38.2803 48.4952C40.2298 48.4952 41.2685 47.648 42.103 46.9673C42.8561 46.3531 43.4507 45.868 44.7222 45.868C45.9936 45.868 46.5881 46.3531 47.3412 46.9673C48.1757 47.648 49.2143 48.4952 51.1638 48.4952C53.1133 48.4952 54.1521 47.648 54.9866 46.9673C55.0968 46.8774 55.2036 46.7909 55.3096 46.7076L55.3097 53.5048Z" fill="#AA8453"/>
</g>
</g>
<defs>
<clipPath id="clip0_4722_924">
<rect width="65" height="65" fill="white"/>
</clipPath>
</defs>
</svg>
