<svg width="45" height="45" viewBox="0 0 45 45" fill="none" xmlns="http://www.w3.org/2000/svg">
<g id="007-tv monitor" clip-path="url(#clip0_4825_3012)">
<g id="Group">
<path id="Vector" d="M38.6396 22.5928C38.6396 22.2286 38.3446 21.9336 37.9805 21.9336H37.0928C36.7286 21.9336 36.4336 22.2286 36.4336 22.5928C36.4336 22.9569 36.7286 23.252 37.0928 23.252H37.9805C38.3445 23.252 38.6396 22.9568 38.6396 22.5928Z" fill="#AA8453"/>
<path id="Vector_2" d="M37.752 25.6318C37.752 25.2677 37.4569 24.9727 37.0928 24.9727C36.7286 24.9727 36.4336 25.2677 36.4336 25.6318V26.2123C36.4336 26.5764 36.7286 26.8714 37.0928 26.8714C37.4569 26.8714 37.752 26.5764 37.752 26.2123V25.6318Z" fill="#AA8453"/>
<path id="Vector_3" d="M39.5576 24.9727C39.1935 24.9727 38.8984 25.2677 38.8984 25.6318V26.2123C38.8984 26.5764 39.1935 26.8714 39.5576 26.8714C39.9217 26.8714 40.2168 26.5764 40.2168 26.2123V25.6318C40.2168 25.2678 39.9217 24.9727 39.5576 24.9727Z" fill="#AA8453"/>
<path id="Vector_4" d="M42.0264 26.8714C42.3905 26.8714 42.6855 26.5764 42.6855 26.2123V25.6318C42.6855 25.2677 42.3905 24.9727 42.0264 24.9727C41.6622 24.9727 41.3672 25.2677 41.3672 25.6318V26.2123C41.3672 26.5763 41.6623 26.8714 42.0264 26.8714Z" fill="#AA8453"/>
<path id="Vector_5" d="M37.752 28.7061C37.752 28.3419 37.4569 28.0469 37.0928 28.0469C36.7286 28.0469 36.4336 28.3419 36.4336 28.7061V29.2865C36.4336 29.6506 36.7286 29.9457 37.0928 29.9457C37.4569 29.9457 37.752 29.6506 37.752 29.2865V28.7061Z" fill="#AA8453"/>
<path id="Vector_6" d="M39.5576 28.0469C39.1935 28.0469 38.8984 28.3419 38.8984 28.7061V29.2865C38.8984 29.6506 39.1935 29.9457 39.5576 29.9457C39.9217 29.9457 40.2168 29.6506 40.2168 29.2865V28.7061C40.2168 28.342 39.9217 28.0469 39.5576 28.0469Z" fill="#AA8453"/>
<path id="Vector_7" d="M41.3672 29.2865C41.3672 29.6506 41.6622 29.9457 42.0264 29.9457C42.3905 29.9457 42.6855 29.6506 42.6855 29.2865V28.7061C42.6855 28.3419 42.3905 28.0469 42.0264 28.0469C41.6622 28.0469 41.3672 28.3419 41.3672 28.7061V29.2865Z" fill="#AA8453"/>
<path id="Vector_8" d="M37.0928 31.1172C36.7286 31.1172 36.4336 31.4122 36.4336 31.7764V32.3568C36.4336 32.7209 36.7286 33.016 37.0928 33.016C37.4569 33.016 37.752 32.7209 37.752 32.3568V31.7764C37.752 31.4123 37.4569 31.1172 37.0928 31.1172Z" fill="#AA8453"/>
<path id="Vector_9" d="M39.5576 31.1172C39.1935 31.1172 38.8984 31.4122 38.8984 31.7764V32.3568C38.8984 32.7209 39.1935 33.016 39.5576 33.016C39.9217 33.016 40.2168 32.7209 40.2168 32.3568V31.7764C40.2168 31.4123 39.9217 31.1172 39.5576 31.1172Z" fill="#AA8453"/>
<path id="Vector_10" d="M41.3672 32.3568C41.3672 32.7209 41.6622 33.016 42.0264 33.016C42.3905 33.016 42.6855 32.7209 42.6855 32.3568V31.7764C42.6855 31.4122 42.3905 31.1172 42.0264 31.1172C41.6622 31.1172 41.3672 31.4122 41.3672 31.7764V32.3568Z" fill="#AA8453"/>
<path id="Vector_11" d="M43.0825 19.8364H41.5976V7.45825C41.5976 6.88037 41.1274 6.41016 40.5494 6.41016H27.8549C27.4908 6.41016 27.1957 6.70521 27.1957 7.06934C27.1957 7.43347 27.4908 7.72852 27.8549 7.72852H40.2792V19.8364H38.9097V12.3074C38.9097 10.5377 37.47 9.09794 35.7003 9.09794H5.8972C4.12752 9.09794 2.68778 10.5377 2.68778 12.3074V27.5021C2.68778 29.2717 4.12752 30.7115 5.8972 30.7115H8.55756C8.92169 30.7115 9.21674 30.4164 9.21674 30.0523C9.21674 29.6882 8.92169 29.3931 8.55756 29.3931H5.8972C4.85455 29.3931 4.00614 28.5448 4.00614 27.5021V12.3074C4.00614 11.2646 4.85446 10.4163 5.8972 10.4163H35.7003C36.7429 10.4163 37.5913 11.2645 37.5913 12.3074V19.8364H36.0364C34.9791 19.8364 34.1189 20.6966 34.1189 21.7539V29.393H11.1931C10.829 29.393 10.534 29.6881 10.534 30.0522C10.534 30.4163 10.829 30.7114 11.1931 30.7114H34.1189V32.0808H1.31836V7.72852H25.2192C25.5834 7.72852 25.8784 7.43347 25.8784 7.06934C25.8784 6.70521 25.5834 6.41016 25.2192 6.41016H1.04818C0.470215 6.41016 0 6.88037 0 7.45825V32.3512C0 32.929 0.470215 33.3993 1.04818 33.3993H14.4013V36.0006H11.5676C11.2035 36.0006 10.9085 36.2956 10.9085 36.6597C10.9085 37.0239 11.2035 37.3189 11.5676 37.3189H30.0301C30.3942 37.3189 30.6893 37.0239 30.6893 36.6597C30.6893 36.2956 30.3942 36.0006 30.0301 36.0006H27.1964V33.3993H34.119V36.6698C34.119 37.7272 34.9792 38.5874 36.0365 38.5874H38.4375C38.8016 38.5874 39.0966 38.2924 39.0966 37.9283C39.0966 37.5641 38.8016 37.2691 38.4375 37.2691H36.0365C35.7061 37.2691 35.4373 37.0002 35.4373 36.6698V21.7539C35.4373 21.4235 35.7062 21.1548 36.0365 21.1548H43.0826C43.413 21.1548 43.6817 21.4236 43.6817 21.7539V36.6698C43.6817 37.0002 43.4129 37.269 43.0826 37.269H41.073C40.7089 37.269 40.4139 37.564 40.4139 37.9282C40.4139 38.2923 40.7089 38.5874 41.073 38.5874H43.0826C44.1399 38.5874 45.0001 37.7271 45.0001 36.6698V21.7539C45 20.6966 44.1398 19.8364 43.0825 19.8364ZM25.878 36.0005H15.7196V33.3992H25.8779L25.878 36.0005Z" fill="#AA8453"/>
</g>
</g>
<defs>
<clipPath id="clip0_4825_3012">
<rect width="45" height="45" fill="white"/>
</clipPath>
</defs>
</svg>
