<svg width="65" height="65" viewBox="0 0 65 65" fill="none" xmlns="http://www.w3.org/2000/svg">
<g id="011-free wifi" clip-path="url(#clip0_4760_346)">
<g id="Group">
<path id="Vector" d="M25.5772 29.8691C26.1032 29.8691 26.5293 29.443 26.5293 28.917C26.5293 28.391 26.1032 27.9648 25.5772 27.9648H23.1006C22.5746 27.9648 22.1484 28.391 22.1484 28.917V35.0272C22.1484 35.5532 22.5746 35.9794 23.1006 35.9794C23.6266 35.9794 24.0527 35.5532 24.0527 35.0272V32.8664H25.3804C25.9064 32.8664 26.3326 32.4402 26.3326 31.9142C26.3326 31.3883 25.9064 30.9621 25.3804 30.9621H24.0527V29.8691H25.5772Z" fill="#AA8453"/>
<path id="Vector_2" d="M36.7017 29.873C37.2277 29.873 37.6539 29.4469 37.6539 28.9209C37.6539 28.3949 37.2277 27.9688 36.7017 27.9688H34.1318C33.6059 27.9688 33.1797 28.3949 33.1797 28.9209V35.02C33.1797 35.5459 33.6059 35.9721 34.1318 35.9721H36.7017C37.2277 35.9721 37.6539 35.5459 37.6539 35.02C37.6539 34.494 37.2277 34.0678 36.7017 34.0678H35.084V32.9226H36.5122C37.0382 32.9226 37.4644 32.4964 37.4644 31.9704C37.4644 31.4445 37.0382 31.0183 36.5122 31.0183H35.084V29.873H36.7017Z" fill="#AA8453"/>
<path id="Vector_3" d="M41.9047 29.873C42.4307 29.873 42.8569 29.4469 42.8569 28.9209C42.8569 28.3949 42.4307 27.9688 41.9047 27.9688H39.335C38.809 27.9688 38.3828 28.3949 38.3828 28.9209V35.02C38.3828 35.5459 38.809 35.9721 39.335 35.9721H41.9047C42.4307 35.9721 42.8569 35.5459 42.8569 35.02C42.8569 34.494 42.4307 34.0678 41.9047 34.0678H40.2871V32.9226H41.7153C42.2413 32.9226 42.6675 32.4964 42.6675 31.9704C42.6675 31.4445 42.2413 31.0183 41.7153 31.0183H40.2871V29.873H41.9047Z" fill="#AA8453"/>
<path id="Vector_4" d="M32.451 30.4933C32.451 29.0861 31.2656 27.9414 29.8086 27.9414H28.1729C28.1725 27.9414 28.1723 27.9414 28.1719 27.9414C28.1715 27.9414 28.1713 27.9414 28.1709 27.9414C27.6449 27.9414 27.2188 28.3676 27.2188 28.8936V35.0489C27.2188 35.5748 27.6449 36.001 28.1709 36.001C28.6969 36.001 29.123 35.5748 29.123 35.0489V33.7906L30.7841 35.6779C30.9722 35.8918 31.2352 36.001 31.4992 36.001C31.7227 36.001 31.947 35.9228 32.1279 35.7636C32.5226 35.4163 32.5609 34.8145 32.2136 34.4198L30.829 32.8467C31.7809 32.4606 32.451 31.5512 32.451 30.4933ZM29.8086 29.8458C30.2019 29.8458 30.5467 30.1485 30.5467 30.4934C30.5467 30.8383 30.2018 31.141 29.8086 31.141C29.6458 31.141 29.3912 31.1419 29.1313 31.1432C29.13 30.8926 29.1291 30.6491 29.1291 30.4935C29.1291 30.3596 29.1286 30.1095 29.1279 29.846H29.8086V29.8458Z" fill="#AA8453"/>
<path id="Vector_5" d="M43.4869 10.4592C43.7265 10.4592 43.9665 10.3692 44.1517 10.1885C44.528 9.82126 44.5354 9.21836 44.1682 8.84207C41.0725 5.66926 36.9274 3.92188 32.4969 3.92188C28.0664 3.92188 23.9212 5.66926 20.8253 8.84194C20.4581 9.21836 20.4656 9.82126 20.8418 10.1884C21.2183 10.5556 21.8209 10.5482 22.1883 10.1719C24.9228 7.36954 28.5837 5.82617 32.4968 5.82617C36.4097 5.82617 40.0707 7.36954 42.8051 10.1719C42.9919 10.3632 43.2392 10.4592 43.4869 10.4592Z" fill="#AA8453"/>
<path id="Vector_6" d="M19.4131 7.40048C22.889 3.8562 27.5356 1.9043 32.4969 1.9043C37.4582 1.9043 42.1047 3.8562 45.5804 7.40048C45.7669 7.59065 46.0135 7.686 46.2602 7.686C46.5009 7.686 46.7414 7.59535 46.9268 7.41355C47.3023 7.04552 47.3081 6.44262 46.94 6.06722C43.1032 2.15478 37.9739 0 32.4969 0C27.0198 0 21.8905 2.15478 18.0536 6.06722C17.6854 6.44262 17.6913 7.04539 18.0668 7.41355C18.4422 7.78172 19.0452 7.77626 19.4131 7.40048Z" fill="#AA8453"/>
<path id="Vector_7" d="M40.4255 13.5213C40.6636 13.5213 40.9022 13.4325 41.087 13.254C41.4652 12.8885 41.4755 12.2857 41.1101 11.9076C38.8309 9.54899 35.7722 8.25 32.4975 8.25C29.2227 8.25 26.1639 9.54886 23.8846 11.9075C23.5192 12.2857 23.5295 12.8885 23.9077 13.2539C24.2859 13.6194 24.8888 13.6088 25.2541 13.2308C27.1713 11.2467 29.7436 10.1542 32.4975 10.1542C35.2511 10.1542 37.8236 11.2467 39.7407 13.2308C39.9274 13.4241 40.1763 13.5213 40.4255 13.5213Z" fill="#AA8453"/>
<path id="Vector_8" d="M36.7839 16.177C37.1453 16.559 37.7479 16.5754 38.1299 16.2141C38.5119 15.8526 38.5286 15.25 38.167 14.868C36.6766 13.2931 34.6636 12.4258 32.4991 12.4258C30.3344 12.4258 28.3214 13.2931 26.831 14.8681C26.4694 15.2501 26.486 15.8528 26.868 16.2142C27.0521 16.3884 27.2875 16.4748 27.5224 16.4748C27.7747 16.4748 28.0269 16.375 28.214 16.1771C29.3412 14.986 30.863 14.3301 32.4991 14.3301C34.1351 14.3301 35.6568 14.9859 36.7839 16.177Z" fill="#AA8453"/>
<path id="Vector_9" d="M32.4971 16.543C31.4326 16.543 30.4198 17.0053 29.7182 17.8115C29.3731 18.2081 29.4148 18.8095 29.8116 19.1548C30.208 19.5001 30.8095 19.4583 31.1548 19.0615C31.4944 18.6712 31.9836 18.4473 32.497 18.4473C33.0103 18.4473 33.4994 18.6712 33.839 19.0615C34.0273 19.2779 34.2917 19.3886 34.5577 19.3886C34.7794 19.3886 35.002 19.3117 35.1823 19.1548C35.579 18.8095 35.6208 18.2081 35.2756 17.8115C34.5743 17.0053 33.5616 16.543 32.4971 16.543Z" fill="#AA8453"/>
<path id="Vector_10" d="M46.5761 45.2949C47.102 45.2949 47.5282 44.8687 47.5282 44.3428C47.5282 43.8168 47.102 43.3906 46.5761 43.3906H40.8975C40.3715 43.3906 39.9453 43.8168 39.9453 44.3428V58.3538C39.9453 58.8798 40.3715 59.306 40.8975 59.306C41.4234 59.306 41.8496 58.8798 41.8496 58.3538V52.1677H46.125C46.651 52.1677 47.0772 51.7415 47.0772 51.2155C47.0772 50.6895 46.651 50.2634 46.125 50.2634H41.8496V45.2948H46.5761V45.2949Z" fill="#AA8453"/>
<path id="Vector_11" d="M29.1456 44.1308L26.883 55.4989L23.3438 44.0104C23.0525 43.0646 21.7727 43.0379 21.4973 44.1221L17.9759 55.4993L15.7222 44.106C15.62 43.5902 15.1194 43.2543 14.6035 43.3567C14.0877 43.4588 13.7522 43.9596 13.8542 44.4754C16.7899 59.2982 16.5968 58.3873 16.641 58.5119C17.0528 59.6705 18.6952 59.6183 19.0498 58.4705L22.4359 47.5309C25.9588 58.9655 25.8051 58.4704 25.8196 58.5119C26.2523 59.7289 28.0138 59.582 28.2524 58.3748L31.0133 44.5025C31.116 43.9868 30.7811 43.4855 30.2653 43.3829C29.7494 43.2798 29.2482 43.6151 29.1456 44.1308Z" fill="#AA8453"/>
<path id="Vector_12" d="M33.6162 49.6406C33.0902 49.6406 32.6641 50.0668 32.6641 50.5928V58.405C32.6641 58.9309 33.0902 59.3571 33.6162 59.3571C34.1422 59.3571 34.5684 58.9309 34.5684 58.405V50.5928C34.5684 50.0668 34.1422 49.6406 33.6162 49.6406Z" fill="#AA8453"/>
<path id="Vector_13" d="M34.5684 46.6123C34.5684 46.0863 34.1422 45.6602 33.6162 45.6602C33.0902 45.6602 32.6641 46.0863 32.6641 46.6123V47.0841C32.6641 47.61 33.0902 48.0362 33.6162 48.0362C34.1422 48.0362 34.5684 47.61 34.5684 47.0841V46.6123Z" fill="#AA8453"/>
<path id="Vector_14" d="M51.1621 50.5928C51.1621 50.0668 50.7359 49.6406 50.21 49.6406C49.684 49.6406 49.2578 50.0668 49.2578 50.5928V58.405C49.2578 58.9309 49.684 59.3571 50.21 59.3571C50.7359 59.3571 51.1621 58.9309 51.1621 58.405V50.5928Z" fill="#AA8453"/>
<path id="Vector_15" d="M50.21 48.0362C50.7359 48.0362 51.1621 47.61 51.1621 47.0841V46.6123C51.1621 46.0863 50.7359 45.6602 50.21 45.6602C49.684 45.6602 49.2578 46.0863 49.2578 46.6123V47.0841C49.2578 47.61 49.6841 48.0362 50.21 48.0362Z" fill="#AA8453"/>
<path id="Vector_16" d="M22.1484 39.7334C22.1484 40.2594 22.5746 40.6855 23.1006 40.6855H41.9068C42.4328 40.6855 42.8589 40.2594 42.8589 39.7334C42.8589 39.2074 42.4328 38.7812 41.9068 38.7812H23.1006C22.5746 38.7812 22.1484 39.2076 22.1484 39.7334Z" fill="#AA8453"/>
<path id="Vector_17" d="M5.6709 50.3945C5.14493 50.3945 4.71875 50.8207 4.71875 51.3467C4.71875 51.8726 5.14493 52.2988 5.6709 52.2988H7.9252C8.45117 52.2988 8.87735 51.8726 8.87735 51.3467C8.87735 50.8207 8.45117 50.3945 7.9252 50.3945H5.6709Z" fill="#AA8453"/>
<path id="Vector_18" d="M59.3238 52.2988C59.8497 52.2988 60.2759 51.8726 60.2759 51.3467C60.2759 50.8207 59.8497 50.3945 59.3238 50.3945H57.0693C56.5434 50.3945 56.1172 50.8207 56.1172 51.3467C56.1172 51.8726 56.5434 52.2988 57.0693 52.2988H59.3238Z" fill="#AA8453"/>
<path id="Vector_19" d="M57.2817 37.6963H51.9229C50.0558 37.6963 48.5368 36.1772 48.5368 34.3101V29.6458C48.5368 26.0222 45.5887 23.0742 41.9651 23.0742H29.4287C28.9027 23.0742 28.4766 23.5004 28.4766 24.0264C28.4766 24.5523 28.9027 24.9785 29.4287 24.9785H41.9651C44.5387 24.9785 46.6325 27.0722 46.6325 29.6458V34.3101C46.6325 37.2273 49.0058 39.6006 51.9229 39.6006H57.2817C60.4886 39.6006 63.0976 42.2096 63.0976 45.4166V57.2814C63.0976 60.4882 60.4886 63.0972 57.2817 63.0972H52.1184C51.5924 63.0972 51.1663 63.5234 51.1663 64.0494C51.1663 64.5753 51.5924 65.0015 52.1184 65.0015H57.2817C61.5387 65.0015 65.0019 61.5382 65.0019 57.2812V45.4164C65.0019 41.1596 61.5387 37.6963 57.2817 37.6963Z" fill="#AA8453"/>
<path id="Vector_20" d="M48.3096 63.0973H7.72027C4.51331 63.0973 1.9043 60.4883 1.9043 57.2814V45.4166C1.9043 42.2096 4.51331 39.6006 7.72027 39.6006H13.079C15.9962 39.6006 18.3695 37.2273 18.3695 34.3101V29.6458C18.3695 27.0724 20.4632 24.9785 23.0369 24.9785H25.6203C26.1463 24.9785 26.5724 24.5523 26.5724 24.0264C26.5724 23.5004 26.1463 23.0742 25.6203 23.0742H23.0369C19.4133 23.0742 16.4652 26.0222 16.4652 29.6458V34.3101C16.4652 36.1772 14.9461 37.6963 13.079 37.6963H7.72027C3.46328 37.6964 0 41.1597 0 45.4166V57.2814C0 61.5383 3.46328 65.0016 7.72027 65.0016H48.3097C48.8357 65.0016 49.2619 64.5755 49.2619 64.0495C49.2619 63.5235 48.8356 63.0973 48.3096 63.0973Z" fill="#AA8453"/>
</g>
</g>
<defs>
<clipPath id="clip0_4760_346">
<rect width="65" height="65" fill="white"/>
</clipPath>
</defs>
</svg>
