<svg width="65" height="65" viewBox="0 0 65 65" fill="none" xmlns="http://www.w3.org/2000/svg">
<g id="014-armchair" clip-path="url(#clip0_4762_2760)">
<g id="Group">
<path id="Vector" d="M31.6631 17.6973H33.3446C33.8705 17.6973 34.2967 17.2711 34.2967 16.7451C34.2967 16.2192 33.8705 15.793 33.3446 15.793H31.6631C31.1371 15.793 30.7109 16.2192 30.7109 16.7451C30.7109 17.2711 31.1371 17.6973 31.6631 17.6973Z" fill="white"/>
<path id="Vector_2" d="M27.1257 8.57422H25.4443C24.9184 8.57422 24.4922 9.0004 24.4922 9.52637C24.4922 10.0523 24.9184 10.4785 25.4443 10.4785H27.1257C27.6517 10.4785 28.0779 10.0523 28.0779 9.52637C28.0779 9.0004 27.6515 8.57422 27.1257 8.57422Z" fill="white"/>
<path id="Vector_3" d="M37.8818 10.4785H39.5632C40.0892 10.4785 40.5154 10.0523 40.5154 9.52637C40.5154 9.0004 40.0892 8.57422 39.5632 8.57422H37.8818C37.3559 8.57422 36.9297 9.0004 36.9297 9.52637C36.9297 10.0523 37.3559 10.4785 37.8818 10.4785Z" fill="white"/>
<path id="Vector_4" d="M27.1257 23.0156H25.4443C24.9184 23.0156 24.4922 23.4418 24.4922 23.9678C24.4922 24.4937 24.9184 24.9199 25.4443 24.9199H27.1257C27.6517 24.9199 28.0779 24.4937 28.0779 23.9678C28.0779 23.4418 27.6515 23.0156 27.1257 23.0156Z" fill="white"/>
<path id="Vector_5" d="M37.8818 24.9199H39.5632C40.0892 24.9199 40.5154 24.4937 40.5154 23.9678C40.5154 23.4418 40.0892 23.0156 39.5632 23.0156H37.8818C37.3559 23.0156 36.9297 23.4418 36.9297 23.9678C36.9297 24.4937 37.3559 24.9199 37.8818 24.9199Z" fill="white"/>
<path id="Vector_6" d="M6.27011 35.5542C7.1306 36.0231 7.99718 36.2574 8.86364 36.2574C9.73009 36.2574 10.5965 36.0231 11.457 35.5542C11.9188 35.3026 12.0891 34.7243 11.8375 34.2625C11.5859 33.8007 11.0076 33.6301 10.5458 33.882C9.39824 34.5074 8.32891 34.5074 7.18138 33.882C6.71965 33.6305 6.14138 33.8007 5.88963 34.2625C5.63814 34.7243 5.80838 35.3025 6.27011 35.5542Z" fill="white"/>
<path id="Vector_7" d="M56.1449 36.2574C57.0113 36.2574 57.8778 36.0231 58.7383 35.5542C59.2 35.3026 59.3704 34.7243 59.1188 34.2625C58.8671 33.8007 58.2887 33.6301 57.827 33.882C56.6795 34.5074 55.6102 34.5074 54.4626 33.882C54.001 33.6305 53.4226 33.8007 53.1709 34.2625C52.9194 34.7243 53.0896 35.3025 53.5514 35.5542C54.4119 36.0231 55.2784 36.2574 56.1449 36.2574Z" fill="white"/>
<path id="Vector_8" d="M64.067 31.3234C63.1246 29.9971 61.6511 29.2364 60.024 29.2364H53.4928C51.2777 29.2364 49.3137 30.7262 48.7169 32.8594L47.8327 36.0195C47.5459 35.7251 47.2421 35.4508 46.9231 35.1975C47.9335 33.184 48.0191 30.1746 48.0191 26.0359V12.5338C48.0191 7.27606 47.8817 3.94621 45.9773 2.04179C44.0729 0.137363 40.743 0 35.4852 0H32.3308C31.8049 0 31.3787 0.426182 31.3787 0.952148C31.3787 1.47812 31.8049 1.9043 32.3308 1.9043H35.4852C40.6762 1.9043 43.3688 2.12634 44.6307 3.38825C45.8926 4.65017 46.1147 7.34271 46.1147 12.5337V26.0358C46.1147 30.098 45.9786 32.6456 45.3082 34.1588C43.9712 33.4779 42.4722 33.1089 40.9146 33.1089H24.0903C22.5327 33.1089 21.0337 33.4779 19.6966 34.1588C19.0263 32.6456 18.8903 30.098 18.8903 26.0358V12.5338C18.8903 7.45558 19.0962 4.80898 20.2661 3.50276C21.4422 2.18994 23.9716 1.9354 28.5299 1.90722C29.0557 1.90404 29.4793 1.47507 29.476 0.949102C29.4729 0.425293 29.0471 0.00291992 28.524 0.00291992H28.5179C23.2899 0.0354199 20.5093 0.377178 18.8477 2.23234C17.2548 4.0107 16.986 6.8476 16.986 12.534V26.0361C16.986 30.1746 17.0715 33.1842 18.0819 35.1976C17.763 35.451 17.459 35.7252 17.1723 36.0196L16.2882 32.8595C15.6913 30.7263 13.7274 29.2365 11.5123 29.2365H4.98095C3.35404 29.2365 1.88037 29.9972 0.937998 31.3235C-0.00424866 32.6499 -0.237588 34.2918 0.298027 35.8281L1.19495 38.4014C1.36799 38.8979 1.91046 39.1605 2.40748 38.987C2.90399 38.814 3.16628 38.271 2.99311 37.7745L2.09619 35.2012C1.76624 34.2547 1.90995 33.2433 2.49038 32.4264C3.07081 31.6094 3.97865 31.1407 4.98082 31.1407H11.5122C12.8767 31.1407 14.0864 32.0585 14.4542 33.3724L15.7994 38.1804C16.3236 40.0535 18.048 41.3617 19.993 41.3617H45.0118C46.9567 41.3617 48.6813 40.0535 49.2055 38.1803L50.5507 33.3724C50.9183 32.0583 52.1282 31.1407 53.4927 31.1407H60.0239C61.0262 31.1407 61.9339 31.6093 62.5143 32.4264C63.0948 33.2434 63.2386 34.2547 62.9086 35.2012L58.9982 46.4191C57.1762 51.6461 52.233 55.1578 46.6978 55.1578H41.9163V53.1405C41.9163 50.129 39.4662 47.6789 36.4547 47.6789H28.5497C25.5381 47.6789 23.088 50.129 23.088 53.1405V55.1578H18.3066C12.7713 55.1578 7.82813 51.6461 6.00609 46.4191L4.253 41.39C4.08009 40.8935 3.53736 40.631 3.04047 40.8044C2.54395 40.9774 2.28167 41.5204 2.45483 42.0169L4.20793 47.046C6.29618 53.037 11.9621 57.0621 18.3066 57.0621H19.1324L20.0029 63.2244C20.146 64.2366 21.0248 64.9999 22.047 64.9999H23.1548C24.1772 64.9999 25.0559 64.2364 25.199 63.2242L26.0694 57.0621H38.9349L39.8053 63.2242C39.9484 64.2365 40.8272 64.9999 41.8495 64.9999H42.9573C43.9797 64.9999 44.8583 64.2364 45.0013 63.2243L45.14 62.2426C45.2137 61.7218 44.8512 61.2402 44.3306 61.1665C43.8092 61.0925 43.328 61.4552 43.2545 61.976L43.1156 62.9578C43.1046 63.0363 43.0365 63.0956 42.9573 63.0956H41.8495C41.7703 63.0956 41.7021 63.0363 41.691 62.9578L40.8582 57.0621H43.9486L43.7923 58.1693C43.7187 58.69 44.0811 59.1717 44.6019 59.2452C45.1212 59.3192 45.6043 58.9565 45.6778 58.4356L45.8719 57.0623H46.6978C53.0422 57.0623 58.708 53.0371 60.7964 47.0462L64.7068 35.8282C65.2426 34.2916 65.0092 32.6498 64.067 31.3234ZM45.0119 39.4574H19.9932C19.083 39.4574 18.2601 38.9473 17.8386 38.1697C19.2634 36.2346 21.543 35.0133 24.0903 35.0133H40.9146C43.4645 35.0133 45.7432 36.2367 47.1663 38.1699C46.7449 38.9474 45.9221 39.4574 45.0119 39.4574ZM24.9928 53.1407C24.9928 51.1792 26.5886 49.5833 28.5502 49.5833H36.4552C38.4166 49.5833 40.0125 51.1791 40.0125 53.1407V55.158H24.9928V53.1407ZM23.3136 62.958C23.3026 63.0364 23.2344 63.0957 23.1552 63.0957H22.0474C21.9682 63.0957 21.9 63.0364 21.8888 62.958L21.056 57.0623H24.1464L23.3136 62.958Z" fill="white"/>
</g>
</g>
<defs>
<clipPath id="clip0_4762_2760">
<rect width="65" height="65" fill="white"/>
</clipPath>
</defs>
</svg>
