<svg width="65" height="65" viewBox="0 0 65 65" fill="none" xmlns="http://www.w3.org/2000/svg">
<g id="025-elevator">
<g id="Group">
<path id="Vector" d="M22.4747 7.23913L20.3833 9.57646C20.0325 9.96837 20.066 10.5703 20.4579 10.9209C20.85 11.2718 21.452 11.238 21.8024 10.8462L23.1841 9.30199L24.566 10.8462C24.754 11.0565 25.0144 11.1635 25.2759 11.1635C25.5019 11.1635 25.7288 11.0835 25.9104 10.9209C26.3023 10.5703 26.3359 9.96837 25.9851 9.57646L23.8937 7.23913C23.713 7.03727 23.455 6.92188 23.1841 6.92188C22.9132 6.92188 22.6552 7.03727 22.4747 7.23913Z" fill="#AA8453"/>
<path id="Vector_2" d="M33.1383 7.23927C32.7877 6.84724 32.1856 6.81373 31.7939 7.16462C31.402 7.51527 31.3684 8.11715 31.7192 8.50906L33.8106 10.8464C33.9913 11.0482 34.2493 11.1636 34.5202 11.1636C34.7911 11.1636 35.0491 11.0482 35.2297 10.8464L37.3212 8.50906C37.6719 8.11715 37.6384 7.51527 37.2465 7.16462C36.8545 6.81373 36.2525 6.8475 35.9021 7.23927L34.5202 8.78353L33.1383 7.23927Z" fill="#AA8453"/>
<path id="Vector_3" d="M34.129 3.35547H23.5771C23.0512 3.35547 22.625 3.78165 22.625 4.30762C22.625 4.83358 23.0512 5.25977 23.5771 5.25977H34.129C34.6549 5.25977 35.0811 4.83358 35.0811 4.30762C35.0811 3.78165 34.6548 3.35547 34.129 3.35547Z" fill="#AA8453"/>
<path id="Vector_4" d="M52.9355 33.3584C52.9355 32.8324 52.5094 32.4062 51.9834 32.4062C51.4574 32.4062 51.0312 32.8324 51.0312 33.3584V34.1441C51.0312 34.6701 51.4574 35.0963 51.9834 35.0963C52.5094 35.0963 52.9355 34.6701 52.9355 34.1441V33.3584Z" fill="#AA8453"/>
<path id="Vector_5" d="M51.9834 37.1133C51.4574 37.1133 51.0312 37.5395 51.0312 38.0654V38.8511C51.0312 39.3771 51.4574 39.8033 51.9834 39.8033C52.5094 39.8033 52.9355 39.3771 52.9355 38.8511V38.0654C52.9355 37.5395 52.5094 37.1133 51.9834 37.1133Z" fill="#AA8453"/>
<path id="Vector_6" d="M55.1906 35.1524C55.7166 35.1524 56.1427 34.7262 56.1427 34.2002V30.6839C56.1427 29.6542 55.305 28.8164 54.2753 28.8164H49.7034C48.6737 28.8164 47.8359 29.6542 47.8359 30.6839V41.5237C47.8359 42.5534 48.6737 43.3911 49.7034 43.3911H54.2753C55.305 43.3911 56.1427 42.5534 56.1427 41.5237V38.0073C56.1427 37.4813 55.7166 37.0552 55.1906 37.0552C54.6646 37.0552 54.2384 37.4813 54.2384 38.0073V41.4868H49.7402V30.7207H54.2384V34.2002C54.2384 34.7262 54.6646 35.1524 55.1906 35.1524Z" fill="#AA8453"/>
<path id="Vector_7" d="M59.1219 0H13.8909C13.365 0 12.9388 0.426182 12.9388 0.952148C12.9388 1.47812 13.365 1.9043 13.8909 1.9043H58.1698V63.0957H45.7941V13.5045C45.7941 12.9785 45.3679 12.5524 44.842 12.5524H12.8643C12.3383 12.5524 11.9121 12.9785 11.9121 13.5045V53.753C11.9121 54.2789 12.3383 54.7051 12.8643 54.7051C13.3902 54.7051 13.8164 54.2789 13.8164 53.753V14.4567H27.901V63.0957H13.8164V57.56C13.8164 57.0341 13.3902 56.6079 12.8643 56.6079C12.3383 56.6079 11.9121 57.0341 11.9121 57.56V63.0957H6.83398V1.9043H10.0841C10.6101 1.9043 11.0363 1.47812 11.0363 0.952148C11.0363 0.426182 10.61 0 10.0841 0H5.88184C5.35587 0 4.92969 0.426182 4.92969 0.952148V64.0479C4.92969 64.5738 5.35587 65 5.88184 65H59.1219C59.6479 65 60.0741 64.5738 60.0741 64.0479V0.952148C60.0741 0.426182 59.6479 0 59.1219 0ZM29.8053 63.0957V14.4567H43.8897V63.0957H29.8053Z" fill="#AA8453"/>
</g>
</g>
</svg>
