<svg width="65" height="65" viewBox="0 0 65 65" fill="none" xmlns="http://www.w3.org/2000/svg">
<g id="032-fire extinguisher">
<g id="Group">
<path id="Vector" d="M23.8743 4.69727C24.4003 4.69727 24.8264 4.27108 24.8264 3.74512C24.8264 3.21915 24.4003 2.79297 23.8743 2.79297H23.0928C22.5668 2.79297 22.1406 3.21915 22.1406 3.74512C22.1406 4.27108 22.5668 4.69727 23.0928 4.69727H23.8743Z" fill="#AA8453"/>
<path id="Vector_2" d="M21.2023 27.2241H30.5481C31.074 27.2241 31.5002 26.7979 31.5002 26.272V22.1602C31.5002 19.0585 28.9768 16.5352 25.875 16.5352C22.7733 16.5352 20.25 19.0585 20.25 22.1602V26.272C20.2501 26.7978 20.6763 27.2241 21.2023 27.2241ZM22.1544 22.1602C22.1544 20.1086 23.8235 18.4395 25.8752 18.4395C27.9269 18.4395 29.596 20.1085 29.596 22.1602V25.3198H22.1546L22.1544 22.1602Z" fill="#AA8453"/>
<path id="Vector_3" d="M20.25 33.938C20.25 34.464 20.6762 34.8902 21.2021 34.8902H30.5479C31.0739 34.8902 31.5001 34.464 31.5001 33.938V29.7412C31.5001 29.2152 31.0739 28.7891 30.5479 28.7891H21.2021C20.6762 28.7891 20.25 29.2152 20.25 29.7412V33.938ZM22.1543 30.6935H29.5958V32.986H22.1543V30.6935Z" fill="#AA8453"/>
<path id="Vector_4" d="M28.4317 37.9102H23.3115C22.7856 37.9102 22.3594 38.3363 22.3594 38.8623C22.3594 39.3883 22.7856 39.8145 23.3115 39.8145H28.4317C28.9576 39.8145 29.3838 39.3883 29.3838 38.8623C29.3838 38.3363 28.9576 37.9102 28.4317 37.9102Z" fill="#AA8453"/>
<path id="Vector_5" d="M28.4317 41.5195H23.3115C22.7856 41.5195 22.3594 41.9457 22.3594 42.4717C22.3594 42.9976 22.7856 43.4238 23.3115 43.4238H28.4317C28.9576 43.4238 29.3838 42.9976 29.3838 42.4717C29.3838 41.9457 28.9576 41.5195 28.4317 41.5195Z" fill="#AA8453"/>
<path id="Vector_6" d="M28.4317 45.1289H23.3115C22.7856 45.1289 22.3594 45.5551 22.3594 46.0811C22.3594 46.607 22.7856 47.0332 23.3115 47.0332H28.4317C28.9576 47.0332 29.3838 46.607 29.3838 46.0811C29.3838 45.5551 28.9576 45.1289 28.4317 45.1289Z" fill="#AA8453"/>
<path id="Vector_7" d="M56.8287 59.0832L54.4276 54.3145C54.1912 53.845 53.6188 53.6558 53.1489 53.8922C52.6793 54.1287 52.4903 54.7012 52.7267 55.1709L54.6699 59.0303L49.912 61.0393L44.6486 45.8035C44.5353 45.4756 44.697 45.1129 45.0167 44.9778L46.5726 44.3209C46.892 44.186 47.2649 44.3228 47.4212 44.6329L51.0147 51.7705C51.2511 52.2402 51.8235 52.4291 52.2934 52.1927C52.763 51.9562 52.952 51.3838 52.7156 50.914L49.122 43.7764C48.5252 42.5916 47.1125 42.0601 45.8853 42.5469C45.0422 41.3399 44.2952 40.064 43.6615 38.7441C41.7216 34.7033 41.2976 30.0702 42.4676 25.6985C43.6381 21.3248 44.3588 17.5424 44.6709 14.135C44.9105 11.5176 44.0286 8.89941 42.2511 6.95183C40.4607 4.99002 37.9109 3.86496 35.2553 3.86496H32.9302V2.81887C32.9302 2.2929 32.5041 1.86672 31.9781 1.86672H29.2867V1.77734C29.2867 0.797266 28.4894 0 27.5095 0H20.6763C20.1504 0 19.7242 0.426182 19.7242 0.952148C19.7242 1.47812 20.1504 1.9043 20.6763 1.9043H27.3824V6.28126H23.5485C22.144 5.87069 17.0956 4.39499 15.4136 3.9033L11.6615 2.80655V1.9043H16.8694C17.3954 1.9043 17.8215 1.47812 17.8215 0.952148C17.8215 0.426182 17.3954 0 16.8694 0H11.474C10.5273 0 9.7571 0.770098 9.7571 1.71679V2.94671C9.7571 3.70462 10.265 4.38229 10.9922 4.59443L13.0838 5.20584L8.99373 8.36164C7.87603 9.22429 7.75213 10.8716 8.73614 11.8906C9.46346 12.644 10.6157 12.8266 11.5363 12.3496L20.9098 7.49379L22.46 7.94701V11.1287C17.6802 12.5922 14.1944 17.0456 14.1944 22.2984V31.4783C14.1944 32.0042 14.6205 32.4304 15.1465 32.4304C15.6725 32.4304 16.0987 32.0042 16.0987 31.4783V22.2984C16.0987 16.9086 20.4836 12.5237 25.8734 12.5237C31.2632 12.5237 35.6482 16.9086 35.6482 22.2984V54.2398H16.0987V35.2852C16.0987 34.7593 15.6725 34.3331 15.1465 34.3331C14.6205 34.3331 14.1944 34.7593 14.1944 35.2852V54.2398H13.8482C13.3222 54.2398 12.896 54.666 12.896 55.192V61.9701C12.896 63.6408 14.2552 65 15.9259 65H35.821C37.4917 65 38.8508 63.6408 38.8508 61.9701V55.192C38.8508 54.666 38.4246 54.2398 37.8987 54.2398H37.5523V22.2984C37.5523 17.0456 34.0665 12.5922 29.2867 11.1287V8.18556H31.9781C32.5041 8.18556 32.9302 7.75938 32.9302 7.23341V5.76926H35.2553C37.377 5.76926 39.4142 6.66821 40.8446 8.2357C42.2829 9.8117 42.9683 11.8451 42.7744 13.9615C42.4723 17.2599 41.7702 20.9381 40.6279 25.2063C39.3403 30.0172 39.808 35.1176 41.9447 39.5684C42.5656 40.8618 43.2887 42.115 44.0986 43.3089C42.9783 43.8869 42.4309 45.216 42.8486 46.4255L48.4443 62.6234C48.5304 62.8725 48.7158 63.0749 48.9565 63.1822C49.1975 63.2894 49.4722 63.2921 49.7146 63.1896L56.3484 60.3887C56.5912 60.2861 56.7807 60.0875 56.8717 59.8402C56.9628 59.5926 56.9472 59.3186 56.8287 59.0832ZM10.6602 10.6589C10.4768 10.7538 10.2492 10.7161 10.1061 10.5678C9.9116 10.3665 9.93509 10.0406 10.157 9.86921L15.3443 5.86701L18.2631 6.72026L10.6602 10.6589ZM36.9465 61.9701C36.9465 62.5908 36.4415 63.0957 35.821 63.0957H15.9259C15.3052 63.0957 14.8003 62.5907 14.8003 61.9701V56.1441H36.9465V61.9701ZM25.8733 10.6194C25.362 10.6194 24.8583 10.6526 24.3642 10.7167V8.18556H27.3823V10.7167C26.8883 10.6528 26.3847 10.6194 25.8733 10.6194ZM31.0259 6.28126H29.2868V3.77102H31.0259V6.28126Z" fill="#AA8453"/>
</g>
</g>
</svg>
