<svg width="65" height="65" viewBox="0 0 65 65" fill="none" xmlns="http://www.w3.org/2000/svg">
<g id="038-suite" clip-path="url(#clip0_4722_1174)">
<g id="Group">
<path id="Vector" d="M18.4287 23.8613H19.344C19.8699 23.8613 20.2962 23.4351 20.2962 22.9092C20.2962 22.3832 19.8699 21.957 19.344 21.957H18.4287C17.9029 21.957 17.4766 22.3832 17.4766 22.9092C17.4766 23.4351 17.9029 23.8613 18.4287 23.8613Z" fill="#AA8453"/>
<path id="Vector_2" d="M18.4287 28.9238H19.344C19.8699 28.9238 20.2962 28.4976 20.2962 27.9717C20.2962 27.4457 19.8699 27.0195 19.344 27.0195H18.4287C17.9029 27.0195 17.4766 27.4457 17.4766 27.9717C17.4766 28.4976 17.9029 28.9238 18.4287 28.9238Z" fill="#AA8453"/>
<path id="Vector_3" d="M24.9053 23.8613H25.8207C26.3466 23.8613 26.7729 23.4351 26.7729 22.9092C26.7729 22.3832 26.3466 21.957 25.8207 21.957H24.9053C24.3794 21.957 23.9531 22.3832 23.9531 22.9092C23.9531 23.4351 24.3794 23.8613 24.9053 23.8613Z" fill="#AA8453"/>
<path id="Vector_4" d="M24.9053 28.9238H25.8207C26.3466 28.9238 26.7729 28.4976 26.7729 27.9717C26.7729 27.4457 26.3466 27.0195 25.8207 27.0195H24.9053C24.3794 27.0195 23.9531 27.4457 23.9531 27.9717C23.9531 28.4976 24.3794 28.9238 24.9053 28.9238Z" fill="#AA8453"/>
<path id="Vector_5" d="M11.7269 32.082H10.8115C10.2857 32.082 9.85938 32.5082 9.85938 33.0342C9.85938 33.5601 10.2857 33.9863 10.8115 33.9863H11.7269C12.2527 33.9863 12.679 33.5601 12.679 33.0342C12.679 32.5082 12.2527 32.082 11.7269 32.082Z" fill="#AA8453"/>
<path id="Vector_6" d="M45.7021 23.8613H46.6176C47.1436 23.8613 47.5698 23.4351 47.5698 22.9092C47.5698 22.3832 47.1436 21.957 46.6176 21.957H45.7021C45.1762 21.957 44.75 22.3832 44.75 22.9092C44.75 23.4351 45.1762 23.8613 45.7021 23.8613Z" fill="#AA8453"/>
<path id="Vector_7" d="M45.7021 28.9238H46.6176C47.1436 28.9238 47.5698 28.4976 47.5698 27.9717C47.5698 27.4457 47.1436 27.0195 46.6176 27.0195H45.7021C45.1762 27.0195 44.75 27.4457 44.75 27.9717C44.75 28.4976 45.1762 28.9238 45.7021 28.9238Z" fill="#AA8453"/>
<path id="Vector_8" d="M39.2256 23.8613H40.141C40.667 23.8613 41.0932 23.4351 41.0932 22.9092C41.0932 22.3832 40.667 21.957 40.141 21.957H39.2256C38.6996 21.957 38.2734 22.3832 38.2734 22.9092C38.2734 23.4351 38.6996 23.8613 39.2256 23.8613Z" fill="#AA8453"/>
<path id="Vector_9" d="M39.2256 28.9238H40.141C40.667 28.9238 41.0932 28.4976 41.0932 27.9717C41.0932 27.4457 40.667 27.0195 40.141 27.0195H39.2256C38.6996 27.0195 38.2734 27.4457 38.2734 27.9717C38.2734 28.4976 38.6996 28.9238 39.2256 28.9238Z" fill="#AA8453"/>
<path id="Vector_10" d="M53.3193 33.9863H54.2348C54.7608 33.9863 55.1869 33.5601 55.1869 33.0342C55.1869 32.5082 54.7608 32.082 54.2348 32.082H53.3193C52.7934 32.082 52.3672 32.5082 52.3672 33.0342C52.3672 33.5601 52.7934 33.9863 53.3193 33.9863Z" fill="#AA8453"/>
<path id="Vector_11" d="M11.7269 27.0195H10.8115C10.2857 27.0195 9.85938 27.4457 9.85938 27.9717C9.85938 28.4976 10.2857 28.9238 10.8115 28.9238H11.7269C12.2527 28.9238 12.679 28.4976 12.679 27.9717C12.679 27.4457 12.2527 27.0195 11.7269 27.0195Z" fill="#AA8453"/>
<path id="Vector_12" d="M53.3193 28.9238H54.2348C54.7608 28.9238 55.1869 28.4976 55.1869 27.9717C55.1869 27.4457 54.7608 27.0195 54.2348 27.0195H53.3193C52.7934 27.0195 52.3672 27.4457 52.3672 27.9717C52.3672 28.4976 52.7934 28.9238 53.3193 28.9238Z" fill="#AA8453"/>
<path id="Vector_13" d="M62.3077 43.5659H60.9627C61.5272 42.0765 61.5719 40.5708 61.0921 39.0726C60.6994 37.8466 59.4845 36.9616 58.0634 36.821V25.3118C58.0634 23.898 56.9132 22.748 55.4997 22.748H53.6662C53.3026 22.748 53.0068 22.4522 53.0068 22.0886V20.4852C53.0068 19.0715 51.8566 17.9215 50.4431 17.9215H47.7222C47.3586 17.9215 47.0628 17.6257 47.0628 17.2621V15.9263C47.0628 13.8241 46.3738 11.796 45.1123 10.1358L47.1551 7.82146C47.4687 7.46624 47.4732 6.93456 47.166 6.57389L41.8492 0.334648C41.6682 0.122256 41.4034 0 41.1245 0H23.9193C23.6403 0 23.3754 0.122256 23.1946 0.334648L17.8779 6.57389C17.5706 6.93456 17.5753 7.46624 17.8887 7.82146L19.9313 10.1356C18.6695 11.7958 17.981 13.8233 17.981 15.9263V17.2619C17.981 17.6255 17.6852 17.9213 17.3216 17.9213H14.6008C13.1871 17.9213 12.0371 19.0715 12.0371 20.485V22.0883C12.0371 22.4519 11.7412 22.7477 11.3776 22.7477H9.5441C8.13048 22.7477 6.98041 23.8979 6.98041 25.3115V36.8154C5.53835 36.9404 4.30043 37.8324 3.90319 39.0725C3.42331 40.5705 3.46813 42.0762 4.03269 43.5657H2.68749C1.22283 43.5657 0.03125 44.6335 0.03125 45.9461V52.7625C0.03125 54.075 1.22283 55.143 2.68749 55.143H4.53275V59.6734H3.9282C2.73929 59.6734 1.7719 60.6407 1.7719 61.8297V64.0479C1.7719 64.5738 2.19821 65 2.72405 65H12.9982C13.5241 65 13.9504 64.5738 13.9504 64.0479V61.8299C13.9504 60.6408 12.983 59.6736 11.7941 59.6736H11.1895V55.1431H44.4742C45.0002 55.1431 45.4264 54.7169 45.4264 54.191C45.4264 53.665 45.0002 53.2388 44.4742 53.2388H2.68749C2.25712 53.2388 1.93555 52.9874 1.93555 52.7626V45.9462C1.93555 45.7214 2.25712 45.4702 2.68749 45.4702H62.3078C62.7382 45.4702 63.0598 45.7214 63.0598 45.9462V52.7626C63.0598 52.9874 62.7382 53.2388 62.3078 53.2388H48.2811C47.7551 53.2388 47.3289 53.665 47.3289 54.191C47.3289 54.7169 47.7551 55.1431 48.2811 55.1431H53.8058V59.6736H53.2012C52.0122 59.6736 51.0449 60.6408 51.0449 61.8299V64.0479C51.0449 64.5738 51.4711 65 51.9971 65H62.2713C62.7973 65 63.2234 64.5738 63.2234 64.0479V61.8299C63.2234 60.6408 62.2562 59.6736 61.0673 59.6736H60.4627V55.1431H62.3078C63.7725 55.1431 64.9641 54.0752 64.9641 52.7626V45.9462C64.964 44.6337 63.7724 43.5659 62.3077 43.5659ZM12.0461 61.8299V63.0957H3.6762V61.8299C3.6762 61.6908 3.78932 61.5779 3.9282 61.5779H11.7941C11.933 61.5779 12.0461 61.691 12.0461 61.8299ZM9.28512 55.1431V59.6736H6.43692V55.1431H9.28512ZM34.557 1.90442L35.743 6.23937H29.3008L30.4867 1.90442H34.557ZM35.7284 8.14354L32.522 19.3673L29.3155 8.14354H35.7284ZM37.7089 8.14354H44.3305L34.5402 19.2353L37.7089 8.14354ZM44.3788 6.23924H37.7173L36.5314 1.9043H40.6848L44.3788 6.23924ZM24.3589 1.9043H28.5124L27.3266 6.23924H20.6649L24.3589 1.9043ZM8.88471 25.3118C8.88471 24.9482 9.18051 24.6523 9.5441 24.6523H11.3777C12.7913 24.6523 13.9415 23.5021 13.9415 22.0886V20.4852C13.9415 20.1216 14.2373 19.8258 14.6009 19.8258H17.3218C18.7354 19.8258 19.8854 18.6756 19.8854 17.2621V15.9263C19.8854 14.3708 20.3553 12.8667 21.2225 11.5984L23.861 14.5875C24.209 14.9817 24.8105 15.0193 25.2049 14.6713C25.5991 14.3234 25.6366 13.7217 25.2887 13.3274L20.7131 8.14354H27.3349L30.5037 19.2354L27.8129 16.1869C27.4649 15.7927 26.8633 15.755 26.469 16.1031C26.0748 16.4511 26.0373 17.0527 26.3852 17.447L31.808 23.5907C32.1868 24.0199 32.8569 24.0199 33.2357 23.5907L43.8209 11.5987C44.6882 12.8671 45.1583 14.3715 45.1583 15.9263V17.2619C45.1583 18.6756 46.3085 19.8256 47.722 19.8256H50.4428C50.8064 19.8256 51.1022 20.1214 51.1022 20.485V22.0883C51.1022 23.5019 52.2524 24.652 53.6659 24.652H55.4995C55.8631 24.652 56.1589 24.9479 56.1589 25.3115V36.7988H51.6538V35.1119C51.6538 32.9055 49.8587 31.1104 47.6523 31.1104H39.1263C36.9199 31.1104 35.1248 32.9055 35.1248 35.1119V36.7988H29.9184V35.1119C29.9184 32.9055 28.1233 31.1104 25.9169 31.1104H17.3908C15.1844 31.1104 13.3893 32.9055 13.3893 35.1119V36.7988H8.88471V25.3118ZM49.7496 36.799H37.0293V35.1122C37.0293 33.9558 37.97 33.0149 39.1266 33.0149H47.6525C48.8089 33.0149 49.7498 33.9556 49.7498 35.1122V36.799H49.7496ZM28.0144 36.799H15.2941V35.1122C15.2941 33.9558 16.2349 33.0149 17.3913 33.0149H25.9174C27.0738 33.0149 28.0146 33.9556 28.0146 35.1122V36.799H28.0144ZM6.11561 43.5659C5.42854 42.2437 5.29841 40.9591 5.71659 39.6537C5.89293 39.1031 6.57061 38.7034 7.32788 38.7034H57.6673C58.4246 38.7034 59.1023 39.1031 59.2786 39.6536C59.6968 40.9591 59.5668 42.2437 58.8796 43.5659H6.11561ZM61.319 61.8299V63.0957H52.9491V61.8299C52.9491 61.6908 53.0622 61.5779 53.2011 61.5779H61.067C61.206 61.5779 61.319 61.691 61.319 61.8299ZM58.5583 59.6736H55.71V55.1431H58.5583V59.6736Z" fill="#AA8453"/>
<path id="Vector_14" d="M17.34 48.6973H25.9583C26.4841 48.6973 26.9104 48.2711 26.9104 47.7451C26.9104 47.2192 26.4841 46.793 25.9583 46.793H17.34C15.7568 46.793 14.4688 47.9416 14.4688 49.3536C14.4688 50.7656 15.7568 51.9143 17.34 51.9143H47.6596C49.2429 51.9143 50.5308 50.7656 50.5308 49.3536C50.5308 47.9416 49.2427 46.793 47.6596 46.793H29.7652C29.2394 46.793 28.8131 47.2192 28.8131 47.7451C28.8131 48.2711 29.2394 48.6973 29.7652 48.6973H47.6596C48.2294 48.6973 48.6265 49.0432 48.6265 49.3536C48.6265 49.664 48.2294 50.01 47.6596 50.01H17.34C16.7702 50.01 16.373 49.664 16.373 49.3536C16.373 49.0432 16.7702 48.6973 17.34 48.6973Z" fill="#AA8453"/>
</g>
</g>
<defs>
<clipPath id="clip0_4722_1174">
<rect width="65" height="65" fill="white"/>
</clipPath>
</defs>
</svg>
