<svg width="40" height="40" viewBox="0 0 40 40" fill="none" xmlns="http://www.w3.org/2000/svg">
<g id="043-hotel sign">
<g id="Group">
<path id="Vector" d="M33.1016 16.5078C32.7779 16.5078 32.5156 16.7701 32.5156 17.0938V22.8962C32.5156 23.1816 32.7214 23.4255 33.0027 23.4737C33.0443 23.4809 33.082 23.4873 33.721 23.4873C34.03 23.4873 34.4798 23.4858 35.1384 23.4822C35.462 23.4804 35.7229 23.2166 35.7211 22.893C35.7193 22.5705 35.4573 22.3103 35.1352 22.3103H35.1319C34.6257 22.3131 34.0805 22.3152 33.6875 22.3152V17.0938C33.6875 16.7702 33.4252 16.5078 33.1016 16.5078Z" fill="#AA8453"/>
<path id="Vector_2" d="M12.8195 23.487C13.1432 23.487 13.4055 23.2248 13.4055 22.9011V17.0938C13.4055 16.7701 13.1432 16.5078 12.8195 16.5078C12.4959 16.5078 12.2336 16.7701 12.2336 17.0938V19.312H9.38672V17.0938C9.38672 16.7701 9.12445 16.5078 8.80078 16.5078C8.47711 16.5078 8.21484 16.7701 8.21484 17.0938V22.9011C8.21484 23.2248 8.47711 23.487 8.80078 23.487C9.12445 23.487 9.38672 23.2248 9.38672 22.9011V20.4838H12.2336V22.9011C12.2336 23.2248 12.4959 23.487 12.8195 23.487Z" fill="#AA8453"/>
<path id="Vector_3" d="M30.6708 17.707C30.9945 17.707 31.2567 17.4448 31.2567 17.1211C31.2567 16.7974 30.9945 16.5352 30.6708 16.5352H28.2461C27.9224 16.5352 27.6602 16.7974 27.6602 17.1211V22.8755C27.6602 23.1991 27.9224 23.4614 28.2461 23.4614H30.6708C30.9945 23.4614 31.2567 23.1991 31.2567 22.8755C31.2567 22.5518 30.9945 22.2895 30.6708 22.2895H28.832V20.5842H30.492C30.8156 20.5842 31.0779 20.322 31.0779 19.9983C31.0779 19.6746 30.8156 19.4123 30.492 19.4123H28.832V17.707H30.6708Z" fill="#AA8453"/>
<path id="Vector_4" d="M22.0078 17.0938C22.0078 17.4174 22.2701 17.6797 22.5938 17.6797H23.6049V22.9011C23.6049 23.2248 23.8672 23.487 24.1909 23.487C24.5145 23.487 24.7768 23.2248 24.7768 22.9011V17.6797H25.8009C26.1245 17.6797 26.3868 17.4174 26.3868 17.0938C26.3868 16.7701 26.1245 16.5078 25.8009 16.5078H22.5937C22.2701 16.5078 22.0078 16.7702 22.0078 17.0938Z" fill="#AA8453"/>
<path id="Vector_5" d="M14.8477 19.9974C14.8477 21.9216 16.4131 23.487 18.3373 23.487C20.2616 23.487 21.827 21.9216 21.827 19.9974C21.827 18.0732 20.2616 16.5078 18.3373 16.5078C16.4131 16.5078 14.8477 18.0733 14.8477 19.9974ZM20.6551 19.9974C20.6551 21.2754 19.6153 22.3152 18.3373 22.3152C17.0593 22.3152 16.0195 21.2754 16.0195 19.9974C16.0195 18.7195 17.0593 17.6797 18.3373 17.6797C19.6153 17.6797 20.6551 18.7195 20.6551 19.9974Z" fill="#AA8453"/>
<path id="Vector_6" d="M17.8025 10.8966L17.3685 10.8335L17.1745 10.4403C17.0012 10.0892 16.6504 9.87109 16.2587 9.87109C15.8671 9.87109 15.5163 10.0892 15.343 10.4402L15.1489 10.8335L14.715 10.8966C14.3275 10.953 14.0116 11.2192 13.8906 11.5916C13.7696 11.9641 13.8686 12.3651 14.149 12.6385L14.4631 12.9445L14.389 13.3766C14.3227 13.7626 14.4784 14.1453 14.7952 14.3755C14.9742 14.5055 15.1836 14.5716 15.3945 14.5716C15.5568 14.5716 15.72 14.5325 15.8707 14.4532L16.2588 14.2492L16.6469 14.4532C16.9936 14.6355 17.4057 14.6056 17.7225 14.3755C18.0393 14.1453 18.195 13.7626 18.1286 13.3767L18.0546 12.9445L18.3686 12.6384C18.649 12.3651 18.748 11.964 18.6271 11.5916C18.5061 11.2193 18.19 10.9529 17.8025 10.8966ZM17.1797 12.1605C16.9391 12.3952 16.8293 12.733 16.8861 13.0645L16.9219 13.2739L16.734 13.1751C16.4364 13.0186 16.0811 13.0185 15.7836 13.175L15.5956 13.2739L15.6315 13.0643C15.6883 12.733 15.5784 12.3952 15.3378 12.1605L15.1857 12.0124L15.3958 11.9818C15.7286 11.9335 16.016 11.7246 16.1647 11.4233L16.2587 11.2328L16.3529 11.4234C16.5017 11.7248 16.7891 11.9335 17.1216 11.9818L17.3318 12.0124L17.1797 12.1605Z" fill="#AA8453"/>
<path id="Vector_7" d="M23.5096 10.8966L23.0756 10.8335L22.8815 10.4404C22.7082 10.0892 22.3574 9.87109 21.9657 9.87109C21.5742 9.87109 21.2233 10.0892 21.05 10.4403L20.8561 10.8335L20.4221 10.8966C20.0346 10.953 19.7186 11.2192 19.5976 11.5916C19.4766 11.9641 19.5757 12.3651 19.8561 12.6385L20.1701 12.9445L20.0961 13.3766C20.0297 13.7626 20.1854 14.1453 20.5022 14.3755C20.6812 14.5055 20.8907 14.5716 21.1015 14.5716C21.2638 14.5716 21.427 14.5325 21.5777 14.4532L21.9658 14.2492L22.3539 14.4532C22.7006 14.6355 23.1128 14.6056 23.4295 14.3755C23.7464 14.1453 23.902 13.7626 23.8357 13.3767L23.7616 12.9445L24.0757 12.6384C24.3561 12.3651 24.455 11.964 24.3341 11.5916C24.2132 11.2193 23.897 10.9529 23.5096 10.8966ZM22.8868 12.1605C22.6461 12.3952 22.5363 12.733 22.5931 13.0645L22.6289 13.2739L22.4411 13.1751C22.1434 13.0186 21.7882 13.0185 21.4907 13.175L21.3026 13.2739L21.3386 13.0643C21.3954 12.733 21.2854 12.3952 21.0448 12.1605L20.8927 12.0124L21.1029 11.9818C21.4354 11.9335 21.7229 11.7248 21.8718 11.4232L21.9658 11.2327L22.0598 11.4232C22.2086 11.7246 22.496 11.9335 22.8286 11.9818L23.0389 12.0124L22.8868 12.1605Z" fill="#AA8453"/>
<path id="Vector_8" d="M29.2283 10.8966L28.7944 10.8335L28.6003 10.4403C28.4269 10.0891 28.076 9.87109 27.6844 9.87109C27.2928 9.87109 26.9419 10.0893 26.7687 10.4403L26.5747 10.8335L26.1407 10.8966C25.7533 10.953 25.4374 11.2193 25.3164 11.5916C25.1954 11.9641 25.2944 12.3652 25.5747 12.6385L25.8888 12.9445L25.8147 13.3767C25.7485 13.7627 25.9042 14.1455 26.221 14.3755C26.4 14.5055 26.6094 14.5716 26.8202 14.5716C26.9825 14.5716 27.1457 14.5325 27.2964 14.4532L27.6845 14.2492L28.0726 14.4532C28.4193 14.6355 28.8315 14.6056 29.1482 14.3755C29.4651 14.1453 29.6207 13.7626 29.5544 13.3767L29.4803 12.9445L29.7944 12.6384C30.0747 12.3651 30.1737 11.964 30.0528 11.5916C29.9319 11.2193 29.6157 10.9529 29.2283 10.8966ZM28.6055 12.1605C28.3649 12.3952 28.2551 12.733 28.3119 13.0645L28.3477 13.2739L28.1598 13.1751C27.8622 13.0186 27.5069 13.0185 27.2094 13.175L27.0214 13.2739L27.0573 13.0643C27.1141 12.733 27.0042 12.3952 26.7636 12.1605L26.6115 12.0124L26.8216 11.9818C27.1544 11.9334 27.4418 11.7246 27.5906 11.4232L27.6846 11.2327L27.7786 11.4232C27.9273 11.7246 28.2147 11.9335 28.5474 11.9818L28.7576 12.0124L28.6055 12.1605Z" fill="#AA8453"/>
<path id="Vector_9" d="M36.1084 12.6328H35.9609C35.6373 12.6328 35.375 12.8951 35.375 13.2188C35.375 13.5424 35.6373 13.8047 35.9609 13.8047H36.1084C36.4321 13.8047 36.6944 13.5424 36.6944 13.2188C36.6944 12.8951 36.4321 12.6328 36.1084 12.6328Z" fill="#AA8453"/>
<path id="Vector_10" d="M36.1084 26.1953H35.9609C35.6373 26.1953 35.375 26.4576 35.375 26.7812C35.375 27.1049 35.6373 27.3672 35.9609 27.3672H36.1084C36.4321 27.3672 36.6944 27.1049 36.6944 26.7812C36.6944 26.4576 36.4321 26.1953 36.1084 26.1953Z" fill="#AA8453"/>
<path id="Vector_11" d="M7.82812 13.8047H7.97563C8.2993 13.8047 8.56156 13.5424 8.56156 13.2188C8.56156 12.8951 8.2993 12.6328 7.97563 12.6328H7.82812C7.50445 12.6328 7.24219 12.8951 7.24219 13.2188C7.24219 13.5424 7.50445 13.8047 7.82812 13.8047Z" fill="#AA8453"/>
<path id="Vector_12" d="M7.82812 27.3672H7.97563C8.2993 27.3672 8.56156 27.1049 8.56156 26.7812C8.56156 26.4576 8.2993 26.1953 7.97563 26.1953H7.82812C7.50445 26.1953 7.24219 26.4576 7.24219 26.7812C7.24219 27.1049 7.50445 27.3672 7.82812 27.3672Z" fill="#AA8453"/>
<path id="Vector_13" d="M23.7648 28.5325C23.4411 28.5325 23.1788 28.7948 23.1788 29.1185C23.1788 29.4422 23.4411 29.7044 23.7648 29.7044H26.9692C27.5661 29.7044 28.0518 29.2188 28.0518 28.6219V26.6294C28.0518 26.0324 27.5661 25.5469 26.9692 25.5469H16.9654C16.3684 25.5469 15.8828 26.0325 15.8828 26.6294V28.6219C15.8828 29.2189 16.3685 29.7044 16.9654 29.7044H21.4221C21.7457 29.7044 22.008 29.4422 22.008 29.1185C22.008 28.7948 21.7457 28.5325 21.4221 28.5325H17.0547V26.7187H26.88V28.5325H23.7648Z" fill="#AA8453"/>
<path id="Vector_14" d="M38.2101 10.2844H33.9864C33.1147 10.2844 32.2807 9.91809 31.6985 9.27926C29.8154 7.21319 26.0875 5.92969 21.9694 5.92969C20.3407 5.92969 18.773 6.12656 17.3098 6.51476C16.9971 6.59773 16.8108 6.91858 16.8938 7.23139C16.9769 7.5442 17.2979 7.73045 17.6105 7.64741C18.9756 7.28514 20.4421 7.10155 21.9694 7.10155C25.7107 7.10155 29.1896 8.26615 30.8324 10.0686C31.6362 10.9505 32.7858 11.4564 33.9864 11.4564H38.2101C38.5451 11.4564 38.8281 11.6716 38.8281 11.9264V28.0699C38.8281 28.3248 38.5451 28.54 38.2101 28.54H33.9864C32.7858 28.54 31.6362 29.0459 30.8324 29.9277C29.1896 31.7301 25.7106 32.8948 21.9694 32.8948C18.228 32.8948 14.7491 31.7302 13.1063 29.9277C12.3025 29.0459 11.1529 28.54 9.95232 28.54H5.72846C5.39346 28.54 5.1105 28.3248 5.1105 28.0699V11.9263C5.1105 11.6714 5.39346 11.4562 5.72846 11.4562H9.95217C11.1528 11.4562 12.3024 10.9503 13.1061 10.0685C13.6746 9.44481 14.4986 8.87013 15.4891 8.40669C15.7821 8.26959 15.9086 7.92076 15.7714 7.62764C15.6342 7.3346 15.2856 7.20788 14.9924 7.3453C13.8473 7.881 12.9212 8.53169 12.24 9.27911C11.6579 9.91793 10.8239 10.2843 9.95217 10.2843H5.72846C4.74152 10.2843 3.93863 11.0208 3.93863 11.9262V14.0412H1.17186V7.99225C1.17186 7.66858 0.909601 7.40631 0.585932 7.40631C0.262263 7.40631 0 7.66858 0 7.99225V33.0098C0 33.3335 0.262263 33.5957 0.585932 33.5957C0.909601 33.5957 1.17186 33.3335 1.17186 33.0098V26.961H3.93863V28.0697C3.93863 28.9751 4.74152 29.7116 5.72846 29.7116H9.95217C10.8239 29.7116 11.6579 30.078 12.24 30.7168C14.1231 32.7829 17.8512 34.0664 21.9692 34.0664C26.0873 34.0664 29.8153 32.7829 31.6984 30.7168C32.2805 30.078 33.1145 29.7116 33.9862 29.7116H38.2099C39.1969 29.7116 39.9998 28.9751 39.9998 28.0697V11.9263C40 11.0209 39.197 10.2844 38.2101 10.2844ZM3.93856 25.7892H1.17186V15.2131H3.93856V25.7892Z" fill="#AA8453"/>
</g>
</g>
</svg>
