<svg width="45" height="45" viewBox="0 0 45 45" fill="none" xmlns="http://www.w3.org/2000/svg">
<g id="043-hotel sign">
<g id="Group">
<path id="Vector" d="M37.2373 18.5742C36.8732 18.5742 36.5781 18.8693 36.5781 19.2334V25.7611C36.5781 26.0823 36.8096 26.3567 37.1261 26.4109C37.1729 26.4189 37.2152 26.4262 37.9342 26.4262C38.2818 26.4262 38.7878 26.4244 39.5288 26.4204C39.8928 26.4184 40.1863 26.1217 40.1843 25.7575C40.1823 25.3947 39.8876 25.102 39.5252 25.102H39.5214C38.952 25.1052 38.3386 25.1075 37.8965 25.1075V19.2334C37.8965 18.8694 37.6014 18.5742 37.2373 18.5742Z" fill="white"/>
<path id="Vector_2" d="M14.4225 26.4258C14.7866 26.4258 15.0816 26.1308 15.0816 25.7667V19.2334C15.0816 18.8693 14.7866 18.5742 14.4225 18.5742C14.0583 18.5742 13.7633 18.8693 13.7633 19.2334V21.7289H10.5605V19.2334C10.5605 18.8693 10.2655 18.5742 9.90137 18.5742C9.53724 18.5742 9.24219 18.8693 9.24219 19.2334V25.7667C9.24219 26.1308 9.53724 26.4258 9.90137 26.4258C10.2655 26.4258 10.5605 26.1308 10.5605 25.7667V23.0472H13.7633V25.7667C13.7633 26.1308 14.0583 26.4258 14.4225 26.4258Z" fill="white"/>
<path id="Vector_3" d="M34.5041 19.9199C34.8683 19.9199 35.1633 19.6249 35.1633 19.2607C35.1633 18.8966 34.8683 18.6016 34.5041 18.6016H31.7764C31.4122 18.6016 31.1172 18.8966 31.1172 19.2607V25.7344C31.1172 26.0985 31.4122 26.3936 31.7764 26.3936H34.5041C34.8683 26.3936 35.1633 26.0985 35.1633 25.7344C35.1633 25.3703 34.8683 25.0752 34.5041 25.0752H32.4355V23.1568H34.303C34.6671 23.1568 34.9621 22.8617 34.9621 22.4976C34.9621 22.1334 34.6671 21.8384 34.303 21.8384H32.4355V19.9199H34.5041Z" fill="white"/>
<path id="Vector_4" d="M24.7578 19.2334C24.7578 19.5975 25.0529 19.8926 25.417 19.8926H26.5546V25.7667C26.5546 26.1308 26.8496 26.4258 27.2137 26.4258C27.5779 26.4258 27.8729 26.1308 27.8729 25.7667V19.8926H29.025C29.3891 19.8926 29.6842 19.5975 29.6842 19.2334C29.6842 18.8693 29.3891 18.5742 29.025 18.5742H25.4169C25.0529 18.5742 24.7578 18.8694 24.7578 19.2334Z" fill="white"/>
<path id="Vector_5" d="M16.7031 22.5C16.7031 24.6648 18.4643 26.4258 20.629 26.4258C22.7938 26.4258 24.5548 24.6648 24.5548 22.5C24.5548 20.3353 22.7938 18.5742 20.629 18.5742C18.4643 18.5742 16.7031 20.3354 16.7031 22.5ZM23.2365 22.5C23.2365 23.9377 22.0667 25.1075 20.629 25.1075C19.1912 25.1075 18.0215 23.9377 18.0215 22.5C18.0215 21.0623 19.1912 19.8926 20.629 19.8926C22.0667 19.8926 23.2365 21.0623 23.2365 22.5Z" fill="white"/>
<path id="Vector_6" d="M20.0283 12.2592L19.54 12.1882L19.3218 11.7458C19.1269 11.3509 18.7321 11.1055 18.2915 11.1055C17.851 11.1055 17.4563 11.3509 17.2614 11.7458L17.0431 12.1882L16.5549 12.2592C16.119 12.3226 15.7635 12.6221 15.6274 13.0411C15.4913 13.4601 15.6027 13.9112 15.9181 14.2188L16.2715 14.5631L16.1881 15.0492C16.1135 15.4834 16.2887 15.914 16.6451 16.1729C16.8464 16.3192 17.0821 16.3936 17.3193 16.3936C17.5018 16.3936 17.6854 16.3496 17.855 16.2603L18.2916 16.0309L18.7283 16.2603C19.1183 16.4654 19.5819 16.4318 19.9383 16.1729C20.2947 15.914 20.4698 15.4834 20.3952 15.0493L20.3119 14.5631L20.6652 14.2187C20.9806 13.9112 21.092 13.46 20.9559 13.0411C20.8199 12.6222 20.4642 12.3225 20.0283 12.2592ZM19.3277 13.6811C19.057 13.945 18.9334 14.3252 18.9973 14.698L19.0376 14.9336L18.8263 14.8225C18.4914 14.6464 18.0918 14.6463 17.7571 14.8224L17.5455 14.9336L17.586 14.6978C17.6499 14.3252 17.5262 13.945 17.2555 13.6811L17.0844 13.5145L17.3208 13.48C17.6951 13.4257 18.0185 13.1907 18.1858 12.8517L18.2915 12.6374L18.3974 12.8519C18.5649 13.1908 18.8882 13.4257 19.2623 13.48L19.4988 13.5145L19.3277 13.6811Z" fill="white"/>
<path id="Vector_7" d="M26.4502 12.2592L25.962 12.1882L25.7437 11.7459C25.5487 11.3509 25.154 11.1055 24.7134 11.1055C24.2729 11.1055 23.8782 11.3509 23.6832 11.7458L23.465 12.1882L22.9768 12.2592C22.5408 12.3226 22.1854 12.6221 22.0493 13.0411C21.9131 13.4601 22.0246 13.9112 22.34 14.2188L22.6933 14.5631L22.61 15.0492C22.5354 15.4834 22.7106 15.914 23.067 16.1729C23.2683 16.3192 23.504 16.3936 23.7412 16.3936C23.9237 16.3936 24.1073 16.3496 24.2769 16.2603L24.7135 16.0309L25.1501 16.2603C25.5401 16.4654 26.0038 16.4318 26.3601 16.1729C26.7166 15.914 26.8917 15.4834 26.8171 15.0493L26.7338 14.5631L27.0871 14.2187C27.4025 13.9112 27.5139 13.46 27.3778 13.0411C27.2418 12.6222 26.8861 12.3225 26.4502 12.2592ZM25.7496 13.6811C25.4789 13.945 25.3553 14.3252 25.4192 14.698L25.4595 14.9336L25.2481 14.8225C24.9133 14.6464 24.5136 14.6463 24.179 14.8224L23.9674 14.9336L24.0078 14.6978C24.0717 14.3252 23.9481 13.945 23.6774 13.6811L23.5062 13.5145L23.7427 13.48C24.1168 13.4257 24.4402 13.1909 24.6078 12.8516L24.7135 12.6373L24.8192 12.8516C24.9866 13.1907 25.3099 13.4257 25.6842 13.48L25.9207 13.5145L25.7496 13.6811Z" fill="white"/>
<path id="Vector_8" d="M32.8798 12.2592L32.3917 12.1882L32.1734 11.7458C31.9783 11.3508 31.5835 11.1055 31.1429 11.1055C30.7024 11.1055 30.3077 11.3509 30.1129 11.7458L29.8946 12.1882L29.4063 12.2592C28.9705 12.3226 28.6151 12.6222 28.479 13.0411C28.3428 13.4601 28.4542 13.9113 28.7696 14.2188L29.123 14.5631L29.0395 15.0493C28.9651 15.4835 29.1403 15.9141 29.4967 16.173C29.698 16.3192 29.9337 16.3936 30.1708 16.3936C30.3533 16.3936 30.5369 16.3496 30.7065 16.2603L31.1431 16.0309L31.5798 16.2603C31.9697 16.4654 32.4334 16.4318 32.7897 16.1729C33.1462 15.914 33.3213 15.4834 33.2467 15.0493L33.1634 14.5631L33.5167 14.2187C33.8321 13.9112 33.9435 13.46 33.8074 13.0411C33.6714 12.6222 33.3157 12.3225 32.8798 12.2592ZM32.1793 13.6811C31.9086 13.945 31.785 14.3252 31.8489 14.698L31.8892 14.9336L31.6778 14.8225C31.343 14.6464 30.9433 14.6463 30.6087 14.8224L30.3971 14.9336L30.4375 14.6978C30.5014 14.3252 30.3778 13.945 30.1071 13.6811L29.9359 13.5145L30.1724 13.48C30.5467 13.4256 30.87 13.1907 31.0375 12.8516L31.1432 12.6373L31.2489 12.8516C31.4163 13.1907 31.7396 13.4257 32.1139 13.48L32.3504 13.5145L32.1793 13.6811Z" fill="white"/>
<path id="Vector_9" d="M40.622 14.2109H40.4561C40.0919 14.2109 39.7969 14.506 39.7969 14.8701C39.7969 15.2342 40.0919 15.5293 40.4561 15.5293H40.622C40.9861 15.5293 41.2812 15.2342 41.2812 14.8701C41.2812 14.506 40.9861 14.2109 40.622 14.2109Z" fill="white"/>
<path id="Vector_10" d="M40.622 29.4688H40.4561C40.0919 29.4688 39.7969 29.7638 39.7969 30.1279C39.7969 30.4921 40.0919 30.7871 40.4561 30.7871H40.622C40.9861 30.7871 41.2812 30.4921 41.2812 30.1279C41.2812 29.7638 40.9861 29.4688 40.622 29.4688Z" fill="white"/>
<path id="Vector_11" d="M8.80762 15.5293H8.97355C9.33769 15.5293 9.63273 15.2342 9.63273 14.8701C9.63273 14.506 9.33769 14.2109 8.97355 14.2109H8.80762C8.44349 14.2109 8.14844 14.506 8.14844 14.8701C8.14844 15.2342 8.44349 15.5293 8.80762 15.5293Z" fill="white"/>
<path id="Vector_12" d="M8.80762 30.7871H8.97355C9.33769 30.7871 9.63273 30.4921 9.63273 30.1279C9.63273 29.7638 9.33769 29.4688 8.97355 29.4688H8.80762C8.44349 29.4688 8.14844 29.7638 8.14844 30.1279C8.14844 30.4921 8.44349 30.7871 8.80762 30.7871Z" fill="white"/>
<path id="Vector_13" d="M26.7344 32.1011C26.3703 32.1011 26.0752 32.3961 26.0752 32.7602C26.0752 33.1244 26.3703 33.4194 26.7344 33.4194H30.3394C31.0109 33.4194 31.5572 32.8731 31.5572 32.2016V29.96C31.5572 29.2884 31.0108 28.7422 30.3394 28.7422H19.0851C18.4135 28.7422 17.8672 29.2885 17.8672 29.96V32.2016C17.8672 32.8732 18.4136 33.4194 19.0851 33.4194H24.0988C24.463 33.4194 24.758 33.1244 24.758 32.7602C24.758 32.3961 24.463 32.1011 24.0988 32.1011H19.1855V30.0604H30.239V32.1011H26.7344Z" fill="white"/>
<path id="Vector_14" d="M42.9864 11.5709H38.2347C37.254 11.5709 36.3158 11.1588 35.6608 10.4401C33.5423 8.11582 29.3484 6.67188 24.7156 6.67188C22.8833 6.67188 21.1196 6.89336 19.4736 7.33008C19.1217 7.42342 18.9121 7.78438 19.0055 8.13629C19.099 8.4882 19.4601 8.69773 19.8118 8.60431C21.3475 8.19676 22.9974 7.99022 24.7156 7.99022C28.9245 7.99022 32.8383 9.30039 34.6865 11.3282C35.5907 12.3203 36.884 12.8894 38.2347 12.8894H42.9864C43.3632 12.8894 43.6817 13.1315 43.6817 13.4182V31.5797C43.6817 31.8664 43.3632 32.1085 42.9864 32.1085H38.2347C36.884 32.1085 35.5907 32.6776 34.6865 33.6697C32.8383 35.6974 28.9244 37.0076 24.7156 37.0076C20.5065 37.0076 16.5927 35.6975 14.7446 33.6697C13.8404 32.6776 12.5471 32.1085 11.1964 32.1085H6.44452C6.06765 32.1085 5.74931 31.8664 5.74931 31.5797V13.418C5.74931 13.1313 6.06765 12.8892 6.44452 12.8892H11.1962C12.5469 12.8892 13.8402 12.3201 14.7444 11.328C15.384 10.6264 16.3109 9.97987 17.4252 9.45851C17.7549 9.30426 17.8972 8.91183 17.7428 8.58207C17.5885 8.2524 17.1963 8.10984 16.8664 8.26444C15.5782 8.8671 14.5364 9.59913 13.77 10.44C13.1151 11.1586 12.1769 11.5708 11.1962 11.5708H6.44452C5.33421 11.5708 4.43096 12.3994 4.43096 13.4179V15.7973H1.31835V8.99225C1.31835 8.62813 1.0233 8.33308 0.659173 8.33308C0.295046 8.33308 0 8.62813 0 8.99225V37.137C0 37.5011 0.295046 37.7962 0.659173 37.7962C1.0233 37.7962 1.31835 37.5011 1.31835 37.137V30.3322H4.43096V31.5794C4.43096 32.598 5.33421 33.4266 6.44452 33.4266H11.1962C12.1769 33.4266 13.1151 33.8387 13.77 34.5574C15.8885 36.8817 20.0826 38.3256 24.7154 38.3256C29.3482 38.3256 33.5423 36.8817 35.6607 34.5574C36.3156 33.8387 37.2538 33.4266 38.2345 33.4266H42.9862C44.0965 33.4266 44.9998 32.598 44.9998 31.5794V13.418C45 12.3995 44.0967 11.5709 42.9864 11.5709ZM4.43087 29.0138H1.31835V17.1157H4.43087V29.0138Z" fill="white"/>
</g>
</g>
</svg>
