<svg width="16" height="16" viewBox="0 0 16 16" fill="none" xmlns="http://www.w3.org/2000/svg">
<g id="Frame">
<g id="Group">
<path id="Vector" d="M9.7569 1.732C9.29143 1.26654 8.53759 1.26625 8.07197 1.73213L7.51234 2.29188C7.04787 2.75647 7.048 3.51235 7.51259 3.97682L11.5386 8.0016L7.51256 12.0264C7.04796 12.491 7.04787 13.2468 7.51243 13.7113L8.07184 14.2709C8.53684 14.7362 9.29103 14.7369 9.75678 14.2712L15.1855 8.84425C15.4107 8.61919 15.5347 8.31994 15.5347 8.0016C15.5347 7.68325 15.4107 7.384 15.1855 7.15907L9.7569 1.732ZM14.8423 8.50103L9.41356 13.928C9.1304 14.2111 8.68468 14.1973 8.41506 13.9277L7.85565 13.3681C7.58047 13.0928 7.58047 12.6449 7.85578 12.3696L12.0535 8.17319C12.099 8.12767 12.1246 8.06594 12.1246 8.00157C12.1246 7.9372 12.099 7.87546 12.0535 7.82994L7.85581 3.6336C7.5805 3.35829 7.58037 2.91041 7.85556 2.6351L8.41518 2.07535C8.68184 1.80869 9.14703 1.80857 9.41368 2.07522L14.8423 7.50241C14.9081 7.56779 14.9603 7.64558 14.9958 7.73127C15.0313 7.81695 15.0495 7.90884 15.0492 8.0016C15.0492 8.19028 14.9757 8.36757 14.8423 8.50103Z" fill="#666666"/>
<path id="Vector_2" d="M8.37133 8.0006C8.37133 7.68226 8.24736 7.38301 8.0223 7.15807L2.59358 1.73101C2.12902 1.26679 1.37323 1.26666 0.908641 1.73113L0.349141 2.29088C-0.115453 2.75535 -0.115328 3.51123 0.349266 3.97582L4.37523 8.0006L0.349391 12.0254C-0.116266 12.4908 -0.116578 13.2446 0.349141 13.7103L0.908547 14.2699C1.37352 14.7352 2.12786 14.7359 2.59361 14.2702L8.02233 8.84326C8.24736 8.6182 8.37133 8.31895 8.37133 8.0006ZM7.67908 8.50004L2.25036 13.927C1.97539 14.2019 1.52845 14.2034 1.25173 13.9267L0.692328 13.3671C0.417109 13.0919 0.415859 12.6453 0.692578 12.3686L4.89017 8.1722C4.93568 8.12667 4.96125 8.06494 4.96125 8.00057C4.96125 7.9362 4.93568 7.87447 4.89017 7.82895L0.692484 3.6326C0.417172 3.35729 0.417172 2.90941 0.692359 2.6341L1.25186 2.07435C1.5273 1.79938 1.97517 1.79904 2.25036 2.07423L7.67908 7.50129C7.74485 7.56671 7.79699 7.64453 7.83249 7.73024C7.86799 7.81594 7.88614 7.90784 7.88589 8.0006C7.88589 8.18929 7.81242 8.36657 7.67908 8.50004Z" fill="#666666"/>
</g>
</g>
</svg>
