<svg width="100" height="100" viewBox="0 0 100 100" fill="none" xmlns="http://www.w3.org/2000/svg">
<g id="Group 1000008578">
<path id="Ellipse 1123" opacity="0.5" d="M50 100C77.6142 100 100 77.6142 100 50C100 22.3858 77.6142 0 50 0C22.3858 0 0 22.3858 0 50C0 77.6142 22.3858 100 50 100Z" fill="white"/>
<path id="Ellipse 1124" opacity="0.4" d="M50 95C74.8528 95 95 74.8528 95 50C95 25.1472 74.8528 5 50 5C25.1472 5 5 25.1472 5 50C5 74.8528 25.1472 95 50 95Z" fill="#0D0D0D"/>
<path id="Ellipse 1125" d="M50 90C72.0914 90 90 72.0914 90 50C90 27.9086 72.0914 10 50 10C27.9086 10 10 27.9086 10 50C10 72.0914 27.9086 90 50 90Z" fill="#AA8453"/>
<path id="Icon awesome-play" d="M64.4081 47.38L42.5054 34.4278C42.0529 34.1544 41.5356 34.0068 41.007 34.0002C40.4784 33.9936 39.9576 34.1282 39.4984 34.3902C39.0392 34.6521 38.6582 35.0319 38.3948 35.4903C38.1314 35.9487 37.9952 36.469 38.0001 36.9977V62.8888C38.0003 63.4154 38.1398 63.9326 38.4045 64.3879C38.6692 64.8431 39.0496 65.2202 39.5072 65.4809C39.9648 65.7416 40.4832 65.8765 41.0098 65.872C41.5364 65.8674 42.0524 65.7237 42.5054 65.4552L64.4081 52.5127C64.855 52.2489 65.2255 51.8732 65.4828 51.4225C65.7402 50.9718 65.8755 50.4618 65.8755 49.9428C65.8755 49.4238 65.7402 48.9138 65.4828 48.4631C65.2255 48.0124 64.855 47.6367 64.4081 47.3729V47.38Z" fill="white"/>
</g>
</svg>
