<svg width="25" height="24" viewBox="0 0 25 24" fill="none" xmlns="http://www.w3.org/2000/svg">
<g id="Group 1000008578">
<path id="Ellipse 1123" opacity="0.5" d="M12.5 24C19.1274 24 24.5 18.6274 24.5 12C24.5 5.37258 19.1274 0 12.5 0C5.87258 0 0.5 5.37258 0.5 12C0.5 18.6274 5.87258 24 12.5 24Z" fill="white"/>
<path id="Ellipse 1124" opacity="0.4" d="M12.5031 22.7992C18.4678 22.7992 23.3031 17.9639 23.3031 11.9992C23.3031 6.03454 18.4678 1.19922 12.5031 1.19922C6.53845 1.19922 1.70312 6.03454 1.70312 11.9992C1.70312 17.9639 6.53845 22.7992 12.5031 22.7992Z" fill="#0D0D0D"/>
<path id="Ellipse 1125" d="M12.4984 21.5984C17.8004 21.5984 22.0984 17.3004 22.0984 11.9984C22.0984 6.6965 17.8004 2.39844 12.4984 2.39844C7.1965 2.39844 2.89844 6.6965 2.89844 11.9984C2.89844 17.3004 7.1965 21.5984 12.4984 21.5984Z" fill="#AA8453"/>
<path id="Icon awesome-play" d="M15.5489 11.2815L10.2922 8.17298C10.1836 8.10738 10.0595 8.07195 9.93262 8.07037C9.80575 8.06878 9.68076 8.10109 9.57055 8.16396C9.46034 8.22682 9.36891 8.31797 9.3057 8.42798C9.24248 8.53799 9.20978 8.66288 9.21097 8.78975V15.0036C9.211 15.13 9.24448 15.2541 9.30801 15.3634C9.37154 15.4727 9.46285 15.5632 9.57267 15.6257C9.68248 15.6883 9.8069 15.7207 9.93329 15.7196C10.0597 15.7185 10.1835 15.684 10.2922 15.6196L15.5489 12.5134C15.6561 12.4501 15.7451 12.3599 15.8068 12.2517C15.8686 12.1435 15.9011 12.0211 15.9011 11.8966C15.9011 11.772 15.8686 11.6496 15.8068 11.5415C15.7451 11.4333 15.6561 11.3431 15.5489 11.2798V11.2815Z" fill="white"/>
</g>
</svg>
