<svg width="28" height="18" viewBox="0 0 28 18" fill="none" xmlns="http://www.w3.org/2000/svg">
<g id="material-symbols-light:bed-outline">
<path id="Vector" d="M3.5 15.9974V10.1641C3.5 9.81873 3.59956 9.45084 3.79867 9.0604C3.99778 8.66995 4.28711 8.37673 4.66667 8.18073V5.4974C4.66667 4.8394 4.89106 4.28601 5.33983 3.83723C5.78861 3.38845 6.342 3.16406 7 3.16406H12.25C12.6521 3.16406 12.9955 3.2469 13.2802 3.41256C13.5648 3.57823 13.8048 3.80651 14 4.0974C14.196 3.80573 14.4359 3.57745 14.7198 3.41256C15.0037 3.24767 15.3471 3.16484 15.75 3.16406H21C21.658 3.16406 22.2114 3.38845 22.6602 3.83723C23.1089 4.28601 23.3333 4.8394 23.3333 5.4974V8.18073C23.7129 8.37673 24.0022 8.66995 24.2013 9.0604C24.4004 9.45084 24.5 9.81873 24.5 10.1641V15.9974H23.3333V13.6641H4.66667V15.9974H3.5ZM14.5833 7.83073H22.1667V5.4974C22.1667 5.16684 22.0547 4.88995 21.8307 4.66673C21.6067 4.44351 21.3298 4.33151 21 4.33073H15.75C15.4194 4.33073 15.1426 4.44273 14.9193 4.66673C14.6961 4.89073 14.5841 5.16762 14.5833 5.4974V7.83073ZM5.83333 7.83073H13.4167V5.4974C13.4167 5.16684 13.3047 4.88995 13.0807 4.66673C12.8567 4.44351 12.5798 4.33151 12.25 4.33073H7C6.66944 4.33073 6.39256 4.44273 6.16933 4.66673C5.94611 4.89073 5.83411 5.16762 5.83333 5.4974V7.83073ZM4.66667 12.4974H23.3333V10.1641C23.3333 9.83351 23.2213 9.55662 22.9973 9.3334C22.7733 9.11017 22.4964 8.99817 22.1667 8.9974H5.83333C5.50278 8.9974 5.22589 9.1094 5.00267 9.3334C4.77944 9.5574 4.66744 9.83428 4.66667 10.1641V12.4974Z" fill="#222222"/>
</g>
</svg>
