<svg width="24" height="24" viewBox="0 0 24 24" fill="none" xmlns="http://www.w3.org/2000/svg">
<g id="solar:bath-linear">
<g id="Group">
<path id="Vector" d="M3 13.0791C3 13.0021 3 12.9631 3.002 12.9311C3.01775 12.6888 3.12111 12.4606 3.29279 12.2889C3.46446 12.1172 3.69273 12.0138 3.935 11.9981C3.968 11.9961 4.005 11.9961 4.083 11.9961H19.917C19.994 11.9961 20.032 11.9961 20.065 11.9981C20.3073 12.0138 20.5355 12.1172 20.7072 12.2889C20.8789 12.4606 20.9822 12.6888 20.998 12.9311C21 12.9631 21 13.0011 21 13.0791C21 13.4741 21 13.6721 20.986 13.8941C20.777 17.1811 17.983 20.0831 14.706 20.4141C14.485 20.4371 14.356 20.4421 14.098 20.4521C13.399 20.4797 12.6995 20.4943 12 20.4961C11.35 20.4961 10.636 20.4791 9.902 20.4521C9.644 20.4421 9.515 20.4371 9.295 20.4151C6.017 20.0831 3.223 17.1811 3.015 13.8941C3 13.6721 3 13.4741 3 13.0791Z" stroke="#222222" stroke-width="1.5"/>
<path id="Vector_2" d="M6 19.9961L5 21.9961M18 19.9961L19 21.9961M2 11.9961H22" stroke="#222222" stroke-width="1.5" stroke-linecap="round"/>
<path id="Vector_3" d="M2.25 12.9961C2.25 13.195 2.32902 13.3858 2.46967 13.5264C2.61032 13.6671 2.80109 13.7461 3 13.7461C3.19891 13.7461 3.38968 13.6671 3.53033 13.5264C3.67098 13.3858 3.75 13.195 3.75 12.9961H2.25ZM6.346 8.73809L5.648 9.01309C5.68492 9.10643 5.7402 9.19141 5.81057 9.263C5.88094 9.33458 5.96496 9.39131 6.05765 9.42982C6.15035 9.46833 6.24983 9.48785 6.3502 9.48721C6.45058 9.48657 6.5498 9.46579 6.642 9.42609L6.346 8.73809ZM12.306 6.17109L12.603 6.86109C12.782 6.784 12.9239 6.64026 12.9988 6.46033C13.0736 6.28039 13.0755 6.07839 13.004 5.89709L12.306 6.17109ZM3.75 12.9961V4.38109H2.25V12.9961H3.75ZM5.385 2.74609C6.054 2.74609 6.655 3.15309 6.903 3.77409L8.296 3.21609C8.0634 2.63441 7.66187 2.13676 7.14318 1.78545C6.6245 1.43413 6.01246 1.24627 5.386 1.24609L5.385 2.74609ZM3.75 4.38109C3.75 3.47809 4.482 2.74609 5.385 2.74609L5.386 1.24609C4.55455 1.24609 3.75615 1.57639 3.16822 2.16431C2.58029 2.75224 2.25 3.54964 2.25 4.38109H3.75ZM6.903 3.77409L7.283 4.72209L8.675 4.16509L8.296 3.21609L6.903 3.77409ZM7.043 8.46309C6.79145 7.82198 6.79646 7.10861 7.057 6.47109L5.667 5.90609C5.26127 6.9007 5.2551 8.01335 5.648 9.01309L7.043 8.46309ZM12.01 5.48309L6.049 8.04909L6.642 9.42609L12.602 6.86009L12.01 5.48309ZM10.282 5.06409C10.904 5.33009 11.367 5.83309 11.609 6.44609L13.004 5.89709C12.8133 5.40532 12.5265 4.95546 12.1605 4.57568C11.7944 4.1959 11.3564 3.89281 10.872 3.68409L10.282 5.06409ZM7.057 6.47109C7.29156 5.8805 7.737 5.399 8.307 5.11809L7.651 3.77009C6.74832 4.21231 6.0415 4.97328 5.667 5.90609L7.057 6.47109ZM8.307 5.11809C8.61284 4.96713 8.94775 4.88422 9.28869 4.87507C9.62963 4.86593 9.96851 4.92975 10.282 5.06409L10.872 3.68409C10.3607 3.46546 9.80813 3.36086 9.25221 3.37553C8.69629 3.3902 8.15009 3.52479 7.651 3.77009L8.307 5.11809Z" fill="#222222"/>
</g>
</g>
</svg>
